<svg width="717" height="636" viewBox="0 0 717 636" fill="none" xmlns="http://www.w3.org/2000/svg">
<g filter="url(#filter0_f)">
<path d="M442.853 211.587C475.386 223.784 508.325 251.025 513.205 282.738C518.492 314.044 496.532 350.636 473.353 381.536C450.173 412.843 425.773 439.27 394.461 453.907C363.148 468.95 324.515 472.203 287.916 462.445C250.91 453.094 215.531 430.732 205.771 399.832C196.418 369.339 212.684 330.714 225.697 297.375C238.71 264.035 248.47 235.982 267.583 221.751C287.103 207.115 316.382 206.708 347.288 204.675C378.194 203.049 410.32 199.796 442.853 211.587Z" fill="url(#paint0_linear)"/>
</g>
<defs>
<filter id="filter0_f" x="0" y="0" width="717" height="671" filterUnits="userSpaceOnUse" color-interpolation-filters="sRGB">
<feFlood flood-opacity="0" result="BackgroundImageFix"/>
<feBlend mode="normal" in="SourceGraphic" in2="BackgroundImageFix" result="shape"/>
<feGaussianBlur stdDeviation="101.5" result="effect1_foregroundBlur"/>
</filter>
<linearGradient id="paint0_linear" x1="203" y1="468" x2="464.641" y2="160.942" gradientUnits="userSpaceOnUse">
<stop stop-color="#99F2C5"/>
<stop offset="1" stop-color="#017B3D"/>
</linearGradient>
</defs>
</svg>
