<svg width="142" height="129" viewBox="0 0 142 129" fill="none" xmlns="http://www.w3.org/2000/svg">
<g clip-path="url(#clip0)" filter="url(#filter0_f)">
<path d="M100.737 66.6074C100.178 74.09 96.6603 80.6206 92.2438 86.2942C87.8941 91.9003 82.5041 96.656 76.1782 98.6924C69.7779 100.668 62.2336 99.9985 53.5077 98.4854C44.7818 96.9722 34.8817 94.7436 28.9368 88.6631C22.992 82.5827 20.8686 72.7852 24.7874 65.8498C28.7063 58.9145 38.5262 54.8479 46.6958 51.6311C54.8654 48.4143 61.3773 45.9191 69.4424 44.5713C77.4331 43.1627 86.8954 42.7126 92.863 46.7352C98.8307 50.7577 101.296 59.1248 100.737 66.6074Z" fill="url(#paint0_linear)"/>
</g>
<defs>
<filter id="filter0_f" x="-17" y="-17" width="175.228" height="162.199" filterUnits="userSpaceOnUse" color-interpolation-filters="sRGB">
<feFlood flood-opacity="0" result="BackgroundImageFix"/>
<feBlend mode="normal" in="SourceGraphic" in2="BackgroundImageFix" result="shape"/>
<feGaussianBlur stdDeviation="8.5" result="effect1_foregroundBlur"/>
</filter>
<linearGradient id="paint0_linear" x1="58" y1="54.6993" x2="80.407" y2="90.0391" gradientUnits="userSpaceOnUse">
<stop offset="0.315346" stop-color="#043E20"/>
<stop offset="1" stop-color="#1BE07C"/>
</linearGradient>
<clipPath id="clip0">
<rect width="95.9793" height="95.0161" fill="white" transform="matrix(0.774276 0.632848 -0.704228 0.709974 66.9131 0)"/>
</clipPath>
</defs>
</svg>
