<svg width="4027" height="201" viewBox="0 0 4027 201" fill="none" xmlns="http://www.w3.org/2000/svg">
<rect width="434" height="201" fill="#0A0909"/>
<rect width="434" height="201" fill="#0A0909"/>
<path d="M48.8605 134.473H50.3165V132.493C54.0452 132.235 56.1404 130.034 56.1404 127.264C56.1404 123.855 52.9088 122.754 51.0267 122.257L50.3165 122.061V115.749C52.1986 115.936 53.5658 116.948 53.7611 118.564H55.8918C55.803 115.971 53.5303 114 50.3165 113.787V111.745H48.8605V113.814C45.8154 114.125 43.5338 116.06 43.5338 118.848C43.5338 121.298 45.3094 122.754 48.1503 123.571L48.8605 123.775V130.495C46.9962 130.3 45.4692 129.341 45.3094 127.512H43.0367C43.2409 130.309 45.3715 132.262 48.8605 132.493V134.473ZM50.3165 130.495V124.192L50.3875 124.21C52.3051 124.743 54.0097 125.417 54.0097 127.228C54.0097 129.013 52.4649 130.256 50.3165 130.495ZM48.8605 121.671C47.5111 121.289 45.6645 120.543 45.6645 118.741C45.6645 117.205 46.9074 116.033 48.8605 115.776V121.671ZM59.0146 128.471H67.5728V132.2H69.668V128.471H72.1538V126.518H69.668V114.018H67.0046L59.0146 126.66V128.471ZM67.5728 126.518H61.3938V126.376L67.4308 116.824H67.5728V126.518ZM76.0489 132.2H78.3572L86.4537 116.078V114.018H74.806V115.971H84.181V116.113L76.0489 132.2ZM89.7985 129.714H87.5257L87.4192 130.708C87.1618 133.114 86.6557 135.511 86.4249 136.639H88.0229C88.449 135.431 89.3546 132.697 89.6564 130.673L89.7985 129.714ZM99.2623 113.77C95.5691 113.725 93.1898 116.504 93.1898 119.842C93.1898 123.358 95.7821 125.879 98.9071 125.879C100.789 125.879 102.387 124.956 103.382 123.464H103.524C103.524 127.939 101.784 130.495 98.9782 130.495C97.0605 130.495 95.8887 129.288 95.498 127.619H93.3319C93.758 130.495 95.9242 132.449 98.9782 132.449C103.062 132.449 105.583 128.826 105.583 122.363C105.583 115.687 102.245 113.805 99.2623 113.77ZM99.2623 115.723C101.535 115.723 103.204 117.676 103.204 119.806C103.204 121.973 101.428 123.926 99.1912 123.926C96.954 123.926 95.3205 122.115 95.3205 119.842C95.3205 117.569 97.025 115.723 99.2623 115.723ZM114.756 132.449C118.219 132.449 120.758 129.892 120.758 126.412C120.758 122.887 118.307 120.304 114.969 120.304C113.744 120.304 112.555 120.739 111.809 121.333H111.702L112.342 115.971H119.941V114.018H110.495L109.394 122.967L111.454 123.216C112.208 122.674 113.496 122.283 114.614 122.292C116.931 122.31 118.627 124.068 118.627 126.447C118.627 128.782 116.994 130.495 114.756 130.495C112.892 130.495 111.409 129.297 111.241 127.654H109.11C109.243 130.424 111.631 132.449 114.756 132.449ZM123.858 128.471H132.417V132.2H134.512V128.471H136.998V126.518H134.512V114.018H131.848L123.858 126.66V128.471ZM132.417 126.518H126.238V126.376L132.275 116.824H132.417V126.518ZM141.032 132.342C141.911 132.342 142.631 131.623 142.631 130.744C142.631 129.865 141.911 129.146 141.032 129.146C140.154 129.146 139.434 129.865 139.434 130.744C139.434 131.623 140.154 132.342 141.032 132.342ZM151.815 132.449C155.339 132.449 157.958 130.238 157.958 127.264C157.958 124.956 156.591 123.278 154.3 122.896V122.754C156.138 122.195 157.283 120.685 157.283 118.635C157.283 116.06 155.25 113.77 151.886 113.77C148.743 113.77 146.133 115.705 146.026 118.564H148.157C148.237 116.753 149.959 115.687 151.85 115.687C153.857 115.687 155.153 116.903 155.153 118.741C155.153 120.659 153.652 121.902 151.495 121.902H150.039V123.855H151.495C154.256 123.855 155.792 125.257 155.792 127.264C155.792 129.19 154.114 130.495 151.779 130.495C149.675 130.495 148.006 129.412 147.873 127.654H145.636C145.769 130.513 148.29 132.449 151.815 132.449ZM167.981 114.018H165.779L161.234 117.037V119.274L165.673 116.326H165.779V132.2H167.981V114.018Z" fill="white"/>
<path d="M152.171 71.0164L139.378 83.8313L137.276 81.726L150.067 68.9111H138.794V65.9333H155.143V82.3111H152.171V71.0164Z" fill="#26AE60"/>
<path d="M44.2017 82.1555H50.7713C55.0682 82.1555 56.8438 80.0603 56.8438 77.326C56.8438 74.4496 54.8551 72.8871 53.1861 72.7805V72.603C54.7486 72.1768 56.1335 71.147 56.1335 68.8032C56.1335 66.1399 54.358 63.9737 50.5582 63.9737H44.2017V82.1555ZM46.4034 80.2024V73.8814H50.8778C53.2571 73.8814 54.7486 75.4794 54.7486 77.326C54.7486 78.924 53.6477 80.2024 50.7713 80.2024H46.4034ZM46.4034 71.9638V65.9268H50.5582C52.973 65.9268 54.0384 67.2052 54.0384 68.8032C54.0384 70.7209 52.4759 71.9638 50.4872 71.9638H46.4034ZM60.1774 82.1555H62.2725V68.5192H60.1774V82.1555ZM61.2427 66.2464C62.0595 66.2464 62.7342 65.6072 62.7342 64.826C62.7342 64.0447 62.0595 63.4055 61.2427 63.4055C60.426 63.4055 59.7512 64.0447 59.7512 64.826C59.7512 65.6072 60.426 66.2464 61.2427 66.2464ZM72.0404 68.5192H69.1285V65.2521H67.0333V68.5192H64.9736V70.2947H67.0333V78.8174C67.0333 81.1967 68.9509 82.3331 70.7265 82.3331C71.5077 82.3331 72.0049 82.191 72.289 82.0845L71.8628 80.2024C71.6853 80.2379 71.4012 80.3089 70.9395 80.3089C70.0162 80.3089 69.1285 80.0248 69.1285 78.2493V70.2947H72.0404V68.5192ZM80.5853 82.4396C83.6038 82.4396 85.5924 80.593 85.9475 78.1782H83.8524C83.4617 79.6697 82.2188 80.5575 80.5853 80.5575C78.0995 80.5575 76.5015 78.4978 76.5015 75.3373C76.5015 72.2478 78.135 70.2237 80.5853 70.2237C82.4319 70.2237 83.5328 71.3601 83.8524 72.603H85.9475C85.5924 70.0461 83.4262 68.3416 80.5498 68.3416C76.8566 68.3416 74.4063 71.2535 74.4063 75.4084C74.4063 79.4922 76.7501 82.4396 80.5853 82.4396ZM94.5502 82.4396C98.2433 82.4396 100.729 79.6342 100.729 75.4084C100.729 71.147 98.2433 68.3416 94.5502 68.3416C90.857 68.3416 88.3712 71.147 88.3712 75.4084C88.3712 79.6342 90.857 82.4396 94.5502 82.4396ZM94.5502 80.5575C91.7448 80.5575 90.4664 78.1427 90.4664 75.4084C90.4664 72.674 91.7448 70.2237 94.5502 70.2237C97.3556 70.2237 98.634 72.674 98.634 75.4084C98.634 78.1427 97.3556 80.5575 94.5502 80.5575ZM103.927 82.1555H106.023V68.5192H103.927V82.1555ZM104.993 66.2464C105.809 66.2464 106.484 65.6072 106.484 64.826C106.484 64.0447 105.809 63.4055 104.993 63.4055C104.176 63.4055 103.501 64.0447 103.501 64.826C103.501 65.6072 104.176 66.2464 104.993 66.2464ZM111.955 73.9524C111.955 71.5731 113.429 70.2237 115.435 70.2237C117.38 70.2237 118.56 71.4932 118.56 73.6328V82.1555H120.655V73.4907C120.655 70.0106 118.8 68.3416 116.039 68.3416C113.979 68.3416 112.701 69.2649 112.062 70.6498H111.884V68.5192H109.86V82.1555H111.955V73.9524Z" fill="white"/>
<line x1="234.25" y1="41" x2="234.25" y2="161.6" stroke="white" stroke-width="0.5"/>
<line x1="296.675" y1="41" x2="296.675" y2="161.6" stroke="white" stroke-width="0.5"/>
<line x1="359.099" y1="41" x2="359.099" y2="161.6" stroke="white" stroke-width="0.5"/>
<line x1="275.866" y1="41" x2="275.866" y2="161.6" stroke="white" stroke-width="0.5"/>
<line x1="338.291" y1="41" x2="338.291" y2="161.6" stroke="white" stroke-width="0.5"/>
<line x1="400.716" y1="41" x2="400.716" y2="161.6" stroke="white" stroke-width="0.5"/>
<line x1="255.058" y1="41" x2="255.058" y2="161.6" stroke="white" stroke-width="0.5"/>
<line x1="317.483" y1="41" x2="317.483" y2="161.6" stroke="white" stroke-width="0.5"/>
<line x1="379.908" y1="41" x2="379.908" y2="161.6" stroke="white" stroke-width="0.5"/>
<path d="M235.486 125.867L242.175 119.167L254.808 133.311L275.616 112.467L284.534 125.867L296.425 95.3444L317.233 64.0777L336.555 100.556L346.959 119.167L359.592 78.9666L378.914 64.0777L399.723 52.1666" stroke="white"/>
<rect x="494" width="434" height="201" fill="#0A0909"/>
<rect x="494" width="434" height="201" fill="#0A0909"/>
<path d="M542.861 134.473H544.316V132.493C548.045 132.235 550.14 130.034 550.14 127.264C550.14 123.855 546.909 122.754 545.027 122.257L544.316 122.061V115.749C546.199 115.936 547.566 116.948 547.761 118.564H549.892C549.803 115.971 547.53 114 544.316 113.787V111.745H542.861V113.814C539.815 114.125 537.534 116.06 537.534 118.848C537.534 121.298 539.309 122.754 542.15 123.571L542.861 123.775V130.495C540.996 130.3 539.469 129.341 539.309 127.512H537.037C537.241 130.309 539.372 132.262 542.861 132.493V134.473ZM544.316 130.495V124.192L544.388 124.21C546.305 124.743 548.01 125.417 548.01 127.228C548.01 129.013 546.465 130.256 544.316 130.495ZM542.861 121.671C541.511 121.289 539.665 120.543 539.665 118.741C539.665 117.205 540.907 116.033 542.861 115.776V121.671ZM559.584 132.449C563.109 132.449 565.728 130.238 565.728 127.264C565.728 124.956 564.36 123.278 562.07 122.896V122.754C563.908 122.195 565.053 120.685 565.053 118.635C565.053 116.06 563.02 113.77 559.655 113.77C556.512 113.77 553.902 115.705 553.796 118.564H555.926C556.006 116.753 557.729 115.687 559.62 115.687C561.626 115.687 562.922 116.903 562.922 118.741C562.922 120.659 561.422 121.902 559.265 121.902H557.809V123.855H559.265C562.026 123.855 563.561 125.257 563.561 127.264C563.561 129.19 561.884 130.495 559.549 130.495C557.445 130.495 555.776 129.412 555.642 127.654H553.405C553.538 130.513 556.06 132.449 559.584 132.449ZM571.958 129.714H569.685L569.578 130.708C569.321 133.114 568.815 135.511 568.584 136.639H570.182C570.608 135.431 571.514 132.697 571.816 130.673L571.958 129.714ZM580.023 114.018H577.821L573.276 117.037V119.274L577.715 116.326H577.821V132.2H580.023V114.018ZM585.252 132.2H596.722V130.247H588.271V130.105L592.354 125.737C595.479 122.39 596.403 120.827 596.403 118.812C596.403 116.007 594.13 113.77 590.934 113.77C587.747 113.77 585.323 115.936 585.323 119.132H587.418C587.418 117.063 588.759 115.687 590.863 115.687C592.834 115.687 594.343 116.895 594.343 118.812C594.343 120.49 593.358 121.733 591.254 124.032L585.252 130.602V132.2ZM606.319 132.449C610.332 132.449 612.64 129.048 612.64 123.109C612.64 117.214 610.297 113.77 606.319 113.77C602.342 113.77 599.998 117.214 599.998 123.109C599.998 129.048 602.307 132.449 606.319 132.449ZM606.319 130.495C603.674 130.495 602.129 127.841 602.129 123.109C602.129 118.386 603.691 115.687 606.319 115.687C608.947 115.687 610.51 118.386 610.51 123.109C610.51 127.841 608.965 130.495 606.319 130.495ZM616.942 132.342C617.821 132.342 618.54 131.623 618.54 130.744C618.54 129.865 617.821 129.146 616.942 129.146C616.063 129.146 615.344 129.865 615.344 130.744C615.344 131.623 616.063 132.342 616.942 132.342ZM627.56 132.449C631.572 132.449 633.881 129.048 633.881 123.109C633.881 117.214 631.537 113.77 627.56 113.77C623.582 113.77 621.239 117.214 621.239 123.109C621.239 129.048 623.547 132.449 627.56 132.449ZM627.56 130.495C624.914 130.495 623.369 127.841 623.369 123.109C623.369 118.386 624.932 115.687 627.56 115.687C630.187 115.687 631.75 118.386 631.75 123.109C631.75 127.841 630.205 130.495 627.56 130.495ZM643.291 132.449C646.967 132.493 649.364 129.723 649.364 126.341C649.364 122.825 646.762 120.304 643.646 120.304C641.773 120.304 640.166 121.218 639.172 122.718H639.03C639.039 118.288 640.761 115.723 643.575 115.723C645.493 115.723 646.647 116.93 647.055 118.564H649.222C648.778 115.74 646.629 113.77 643.575 113.77C639.483 113.77 636.97 117.392 636.97 123.819C636.97 130.54 640.308 132.413 643.291 132.449ZM643.291 130.495C641.009 130.495 639.34 128.551 639.349 126.376C639.358 124.201 641.107 122.257 643.362 122.257C645.59 122.257 647.233 124.086 647.233 126.341C647.233 128.649 645.519 130.495 643.291 130.495Z" fill="white"/>
<path d="M674.787 71.0164L661.994 83.8313L659.893 81.726L672.684 68.9111H661.41V65.9333H677.759V82.3111H674.787V71.0164Z" fill="#26AE60"/>
<path d="M538.202 82.1555H549.317V80.2024H540.403V74.0234H548.607V72.0703H540.403V65.9268H549.175V63.9737H538.202V82.1555ZM558.789 68.5192H555.877V65.2521H553.782V68.5192H551.723V70.2947H553.782V78.8174C553.782 81.1967 555.7 82.3331 557.475 82.3331C558.257 82.3331 558.754 82.191 559.038 82.0845L558.612 80.2024C558.434 80.2379 558.15 80.3089 557.689 80.3089C556.765 80.3089 555.877 80.0248 555.877 78.2493V70.2947H558.789V68.5192ZM564.329 73.9524C564.329 71.5731 565.847 70.2237 567.916 70.2237C569.887 70.2237 571.076 71.4666 571.076 73.6328V82.1555H573.172V73.4907C573.172 69.984 571.307 68.3416 568.52 68.3416C566.371 68.3416 565.146 69.2383 564.507 70.6498H564.329V63.9737H562.234V82.1555H564.329V73.9524ZM582.722 82.4396C585.492 82.4396 587.516 81.0547 588.155 78.995L586.131 78.4268C585.598 79.8473 584.364 80.5575 582.722 80.5575C580.263 80.5575 578.567 78.9684 578.469 76.0476H588.368V75.1598C588.368 70.0817 585.35 68.3416 582.509 68.3416C578.816 68.3416 576.365 71.2535 576.365 75.4439C576.365 79.6342 578.78 82.4396 582.722 82.4396ZM578.469 74.2365C578.611 72.1147 580.112 70.2237 582.509 70.2237C584.782 70.2237 586.237 71.9282 586.237 74.2365H578.469ZM591.555 82.1555H593.65V73.5263C593.65 71.6797 595.106 70.3302 597.095 70.3302C597.654 70.3302 598.231 70.4368 598.373 70.4723V68.3416C598.134 68.3238 597.583 68.3061 597.273 68.3061C595.639 68.3061 594.219 69.2294 593.722 70.5788H593.579V68.5192H591.555V82.1555ZM606.159 82.4396C608.929 82.4396 610.953 81.0547 611.593 78.995L609.568 78.4268C609.036 79.8473 607.802 80.5575 606.159 80.5575C603.7 80.5575 602.005 78.9684 601.907 76.0476H611.806V75.1598C611.806 70.0817 608.787 68.3416 605.946 68.3416C602.253 68.3416 599.803 71.2535 599.803 75.4439C599.803 79.6342 602.218 82.4396 606.159 82.4396ZM601.907 74.2365C602.049 72.1147 603.549 70.2237 605.946 70.2237C608.219 70.2237 609.675 71.9282 609.675 74.2365H601.907ZM623.587 76.5802C623.587 79.1371 621.633 80.3089 620.071 80.3089C618.331 80.3089 617.088 79.0305 617.088 77.0419V68.5192H614.993V77.1839C614.993 80.664 616.839 82.3331 619.396 82.3331C621.456 82.3331 622.805 81.2322 623.445 79.8473H623.587V82.1555H625.682V68.5192H623.587V76.5802ZM629.519 82.1555H631.614V73.6328C631.614 71.6353 633.07 70.2237 634.704 70.2237C636.293 70.2237 637.403 71.2624 637.403 72.816V82.1555H639.533V73.2777C639.533 71.5199 640.634 70.2237 642.552 70.2237C644.043 70.2237 645.322 71.0138 645.322 73.0291V82.1555H647.417V73.0291C647.417 69.8242 645.695 68.3416 643.262 68.3416C641.309 68.3416 639.88 69.2383 639.178 70.6498H639.036C638.362 69.1939 637.172 68.3416 635.379 68.3416C633.603 68.3416 632.289 69.1939 631.721 70.6498H631.543V68.5192H629.519V82.1555Z" fill="white"/>
<line x1="728.25" y1="41" x2="728.25" y2="161.6" stroke="white" stroke-width="0.5"/>
<line x1="790.675" y1="41" x2="790.675" y2="161.6" stroke="white" stroke-width="0.5"/>
<line x1="853.099" y1="41" x2="853.099" y2="161.6" stroke="white" stroke-width="0.5"/>
<line x1="769.866" y1="41" x2="769.866" y2="161.6" stroke="white" stroke-width="0.5"/>
<line x1="832.291" y1="41" x2="832.291" y2="161.6" stroke="white" stroke-width="0.5"/>
<line x1="894.716" y1="41" x2="894.716" y2="161.6" stroke="white" stroke-width="0.5"/>
<line x1="749.058" y1="41" x2="749.058" y2="161.6" stroke="white" stroke-width="0.5"/>
<line x1="811.483" y1="41" x2="811.483" y2="161.6" stroke="white" stroke-width="0.5"/>
<line x1="873.908" y1="41" x2="873.908" y2="161.6" stroke="white" stroke-width="0.5"/>
<path d="M729.486 125.867L736.175 119.167L748.808 133.311L769.616 112.467L778.534 125.867L790.425 95.3444L811.233 64.0777L830.555 100.556L840.959 119.167L853.592 78.9666L872.914 64.0777L893.723 52.1666" stroke="white"/>
<rect x="1001" width="434" height="201" fill="#0A0909"/>
<rect x="1001" width="434" height="201" fill="#0A0909"/>
<path d="M1049.86 134.473H1051.32V132.493C1055.05 132.235 1057.14 130.034 1057.14 127.264C1057.14 123.855 1053.91 122.754 1052.03 122.257L1051.32 122.061V115.749C1053.2 115.936 1054.57 116.948 1054.76 118.564H1056.89C1056.8 115.971 1054.53 114 1051.32 113.787V111.745H1049.86V113.814C1046.82 114.125 1044.53 116.06 1044.53 118.848C1044.53 121.298 1046.31 122.754 1049.15 123.571L1049.86 123.775V130.495C1048 130.3 1046.47 129.341 1046.31 127.512H1044.04C1044.24 130.309 1046.37 132.262 1049.86 132.493V134.473ZM1051.32 130.495V124.192L1051.39 124.21C1053.31 124.743 1055.01 125.417 1055.01 127.228C1055.01 129.013 1053.46 130.256 1051.32 130.495ZM1049.86 121.671C1048.51 121.289 1046.66 120.543 1046.66 118.741C1046.66 117.205 1047.91 116.033 1049.86 115.776V121.671ZM1060.01 128.471H1068.57V132.2H1070.67V128.471H1073.15V126.518H1070.67V114.018H1068L1060.01 126.66V128.471ZM1068.57 126.518H1062.39V126.376L1068.43 116.824H1068.57V126.518ZM1077.05 132.2H1079.36L1087.45 116.078V114.018H1075.81V115.971H1085.18V116.113L1077.05 132.2ZM1096.41 132.449C1100.08 132.493 1102.48 129.723 1102.48 126.341C1102.48 122.825 1099.88 120.304 1096.76 120.304C1094.89 120.304 1093.28 121.218 1092.29 122.718H1092.15C1092.16 118.288 1093.88 115.723 1096.69 115.723C1098.61 115.723 1099.77 116.93 1100.17 118.564H1102.34C1101.9 115.74 1099.75 113.77 1096.69 113.77C1092.6 113.77 1090.09 117.392 1090.09 123.819C1090.09 130.54 1093.43 132.413 1096.41 132.449ZM1096.41 130.495C1094.13 130.495 1092.46 128.551 1092.47 126.376C1092.48 124.201 1094.23 122.257 1096.48 122.257C1098.71 122.257 1100.35 124.086 1100.35 126.341C1100.35 128.649 1098.64 130.495 1096.41 130.495ZM1106.68 132.342C1107.56 132.342 1108.28 131.623 1108.28 130.744C1108.28 129.865 1107.56 129.146 1106.68 129.146C1105.8 129.146 1105.08 129.865 1105.08 130.744C1105.08 131.623 1105.8 132.342 1106.68 132.342ZM1116.22 114.018H1114.02L1109.48 117.037V119.274L1113.91 116.326H1114.02V132.2H1116.22V114.018ZM1127.13 132.449C1130.6 132.449 1133.13 129.892 1133.13 126.412C1133.13 122.887 1130.68 120.304 1127.35 120.304C1126.12 120.304 1124.93 120.739 1124.19 121.333H1124.08L1124.72 115.971H1132.32V114.018H1122.87L1121.77 122.967L1123.83 123.216C1124.59 122.674 1125.87 122.283 1126.99 122.292C1129.31 122.31 1131 124.068 1131 126.447C1131 128.782 1129.37 130.495 1127.13 130.495C1125.27 130.495 1123.79 129.297 1123.62 127.654H1121.49C1121.62 130.424 1124.01 132.449 1127.13 132.449Z" fill="white"/>
<path d="M1165.79 71.0164L1152.99 83.8313L1150.89 81.726L1163.68 68.9111H1152.41V65.9333H1168.76V82.3111H1165.79V71.0164Z" fill="#26AE60"/>
<path d="M1045.2 82.1555H1051.77C1056.07 82.1555 1057.84 80.0603 1057.84 77.326C1057.84 74.4496 1055.86 72.8871 1054.19 72.7805V72.603C1055.75 72.1768 1057.13 71.147 1057.13 68.8032C1057.13 66.1399 1055.36 63.9737 1051.56 63.9737H1045.2V82.1555ZM1047.4 80.2024V73.8814H1051.88C1054.26 73.8814 1055.75 75.4794 1055.75 77.326C1055.75 78.924 1054.65 80.2024 1051.77 80.2024H1047.4ZM1047.4 71.9638V65.9268H1051.56C1053.97 65.9268 1055.04 67.2052 1055.04 68.8032C1055.04 70.7209 1053.48 71.9638 1051.49 71.9638H1047.4ZM1061.18 82.1555H1063.27V68.5192H1061.18V82.1555ZM1062.24 66.2464C1063.06 66.2464 1063.73 65.6072 1063.73 64.826C1063.73 64.0447 1063.06 63.4055 1062.24 63.4055C1061.43 63.4055 1060.75 64.0447 1060.75 64.826C1060.75 65.6072 1061.43 66.2464 1062.24 66.2464ZM1069.21 73.9524C1069.21 71.5731 1070.68 70.2237 1072.69 70.2237C1074.63 70.2237 1075.81 71.4932 1075.81 73.6328V82.1555H1077.91V73.4907C1077.91 70.0106 1076.05 68.3416 1073.29 68.3416C1071.23 68.3416 1069.95 69.2649 1069.31 70.6498H1069.13V68.5192H1067.11V82.1555H1069.21V73.9524ZM1085.75 82.4751C1088.13 82.4751 1089.37 81.1967 1089.8 80.3089H1089.9V82.1555H1092V73.1711C1092 68.8388 1088.69 68.3416 1086.95 68.3416C1084.89 68.3416 1082.55 69.0518 1081.49 71.5376L1083.47 72.2478C1083.94 71.2535 1085.03 70.1882 1087.03 70.1882C1088.95 70.1882 1089.9 71.2091 1089.9 72.9581V73.0291C1089.9 74.0412 1088.87 73.9524 1086.39 74.272C1083.86 74.6005 1081.09 75.1598 1081.09 78.2848C1081.09 80.9481 1083.15 82.4751 1085.75 82.4751ZM1086.07 80.593C1084.4 80.593 1083.19 79.8473 1083.19 78.3913C1083.19 76.7933 1084.65 76.2961 1086.28 76.0831C1087.17 75.9765 1089.55 75.728 1089.9 75.3018V77.2194C1089.9 78.924 1088.55 80.593 1086.07 80.593ZM1097.92 73.9524C1097.92 71.5731 1099.39 70.2237 1101.4 70.2237C1103.34 70.2237 1104.52 71.4932 1104.52 73.6328V82.1555H1106.62V73.4907C1106.62 70.0106 1104.76 68.3416 1102 68.3416C1099.94 68.3416 1098.66 69.2649 1098.02 70.6498H1097.85V68.5192H1095.82V82.1555H1097.92V73.9524ZM1115.98 82.4396C1119 82.4396 1120.99 80.593 1121.35 78.1782H1119.25C1118.86 79.6697 1117.62 80.5575 1115.98 80.5575C1113.5 80.5575 1111.9 78.4978 1111.9 75.3373C1111.9 72.2478 1113.53 70.2237 1115.98 70.2237C1117.83 70.2237 1118.93 71.3601 1119.25 72.603H1121.35C1120.99 70.0461 1118.83 68.3416 1115.95 68.3416C1112.26 68.3416 1109.81 71.2535 1109.81 75.4084C1109.81 79.4922 1112.15 82.4396 1115.98 82.4396ZM1130.13 82.4396C1132.9 82.4396 1134.92 81.0547 1135.56 78.995L1133.54 78.4268C1133 79.8473 1131.77 80.5575 1130.13 80.5575C1127.67 80.5575 1125.97 78.9684 1125.87 76.0476H1135.77V75.1598C1135.77 70.0817 1132.75 68.3416 1129.91 68.3416C1126.22 68.3416 1123.77 71.2535 1123.77 75.4439C1123.77 79.6342 1126.19 82.4396 1130.13 82.4396ZM1125.87 74.2365C1126.02 72.1147 1127.52 70.2237 1129.91 70.2237C1132.19 70.2237 1133.64 71.9282 1133.64 74.2365H1125.87Z" fill="white"/>
<line x1="1235.25" y1="41" x2="1235.25" y2="161.6" stroke="white" stroke-width="0.5"/>
<line x1="1297.67" y1="41" x2="1297.67" y2="161.6" stroke="white" stroke-width="0.5"/>
<line x1="1360.1" y1="41" x2="1360.1" y2="161.6" stroke="white" stroke-width="0.5"/>
<line x1="1276.87" y1="41" x2="1276.87" y2="161.6" stroke="white" stroke-width="0.5"/>
<line x1="1339.29" y1="41" x2="1339.29" y2="161.6" stroke="white" stroke-width="0.5"/>
<line x1="1401.72" y1="41" x2="1401.72" y2="161.6" stroke="white" stroke-width="0.5"/>
<line x1="1256.06" y1="41" x2="1256.06" y2="161.6" stroke="white" stroke-width="0.5"/>
<line x1="1318.48" y1="41" x2="1318.48" y2="161.6" stroke="white" stroke-width="0.5"/>
<line x1="1380.91" y1="41" x2="1380.91" y2="161.6" stroke="white" stroke-width="0.5"/>
<path d="M1236.49 125.867L1243.17 119.167L1255.81 133.311L1276.62 112.467L1285.53 125.867L1297.42 95.3444L1318.23 64.0777L1337.55 100.556L1347.96 119.167L1360.59 78.9666L1379.91 64.0777L1400.72 52.1666" stroke="white"/>
<rect x="1508" width="434" height="201" fill="#0A0909"/>
<rect x="1508" width="434" height="201" fill="#0A0909"/>
<path d="M1556.86 134.473H1558.32V132.493C1562.05 132.235 1564.14 130.034 1564.14 127.264C1564.14 123.855 1560.91 122.754 1559.03 122.257L1558.32 122.061V115.749C1560.2 115.936 1561.57 116.948 1561.76 118.564H1563.89C1563.8 115.971 1561.53 114 1558.32 113.787V111.745H1556.86V113.814C1553.82 114.125 1551.53 116.06 1551.53 118.848C1551.53 121.298 1553.31 122.754 1556.15 123.571L1556.86 123.775V130.495C1555 130.3 1553.47 129.341 1553.31 127.512H1551.04C1551.24 130.309 1553.37 132.262 1556.86 132.493V134.473ZM1558.32 130.495V124.192L1558.39 124.21C1560.31 124.743 1562.01 125.417 1562.01 127.228C1562.01 129.013 1560.47 130.256 1558.32 130.495ZM1556.86 121.671C1555.51 121.289 1553.66 120.543 1553.66 118.741C1553.66 117.205 1554.91 116.033 1556.86 115.776V121.671ZM1573.37 132.449C1577.38 132.449 1579.69 129.048 1579.69 123.109C1579.69 117.214 1577.35 113.77 1573.37 113.77C1569.39 113.77 1567.05 117.214 1567.05 123.109C1567.05 129.048 1569.36 132.449 1573.37 132.449ZM1573.37 130.495C1570.73 130.495 1569.18 127.841 1569.18 123.109C1569.18 118.386 1570.74 115.687 1573.37 115.687C1576 115.687 1577.56 118.386 1577.56 123.109C1577.56 127.841 1576.02 130.495 1573.37 130.495ZM1583.99 132.342C1584.87 132.342 1585.59 131.623 1585.59 130.744C1585.59 129.865 1584.87 129.146 1583.99 129.146C1583.11 129.146 1582.4 129.865 1582.4 130.744C1582.4 131.623 1583.11 132.342 1583.99 132.342ZM1589.32 132.2H1600.79V130.247H1592.33V130.105L1596.42 125.737C1599.54 122.39 1600.47 120.827 1600.47 118.812C1600.47 116.007 1598.19 113.77 1595 113.77C1591.81 113.77 1589.39 115.936 1589.39 119.132H1591.48C1591.48 117.063 1592.82 115.687 1594.93 115.687C1596.9 115.687 1598.41 116.895 1598.41 118.812C1598.41 120.49 1597.42 121.733 1595.32 124.032L1589.32 130.602V132.2ZM1610.28 132.449C1613.91 132.449 1616.44 130.327 1616.46 127.37C1616.44 125.071 1614.9 123.118 1612.94 122.754V122.647C1614.64 122.204 1615.76 120.534 1615.78 118.599C1615.76 115.829 1613.44 113.77 1610.28 113.77C1607.08 113.77 1604.75 115.829 1604.77 118.599C1604.75 120.534 1605.87 122.204 1607.61 122.647V122.754C1605.62 123.118 1604.08 125.071 1604.1 127.37C1604.08 130.327 1606.61 132.449 1610.28 132.449ZM1610.28 130.495C1607.78 130.495 1606.25 129.217 1606.26 127.264C1606.25 125.213 1607.94 123.748 1610.28 123.748C1612.58 123.748 1614.27 125.213 1614.29 127.264C1614.27 129.217 1612.74 130.495 1610.28 130.495ZM1610.28 121.866C1608.29 121.866 1606.89 120.623 1606.9 118.741C1606.89 116.895 1608.23 115.687 1610.28 115.687C1612.28 115.687 1613.63 116.895 1613.65 118.741C1613.63 120.623 1612.23 121.866 1610.28 121.866ZM1619.43 128.471H1627.99V132.2H1630.09V128.471H1632.57V126.518H1630.09V114.018H1627.42L1619.43 126.66V128.471ZM1627.99 126.518H1621.81V126.376L1627.85 116.824H1627.99V126.518ZM1641.93 132.449C1645.61 132.493 1648.01 129.723 1648.01 126.341C1648.01 122.825 1645.41 120.304 1642.29 120.304C1640.42 120.304 1638.81 121.218 1637.82 122.718H1637.67C1637.68 118.288 1639.4 115.723 1642.22 115.723C1644.14 115.723 1645.29 116.93 1645.7 118.564H1647.87C1647.42 115.74 1645.27 113.77 1642.22 113.77C1638.13 113.77 1635.61 117.392 1635.61 123.819C1635.61 130.54 1638.95 132.413 1641.93 132.449ZM1641.93 130.495C1639.65 130.495 1637.98 128.551 1637.99 126.376C1638 124.201 1639.75 122.257 1642.01 122.257C1644.23 122.257 1645.88 124.086 1645.88 126.341C1645.88 128.649 1644.16 130.495 1641.93 130.495Z" fill="white"/>
<path d="M1687.79 71.0164L1674.99 83.8313L1672.89 81.726L1685.68 68.9111H1674.41V65.9333H1690.76V82.3111H1687.79V71.0164Z" fill="#26AE60"/>
<path d="M1557.81 82.1555C1563.35 82.1555 1566.48 78.7109 1566.48 73.0291C1566.48 67.3828 1563.35 63.9737 1558.06 63.9737H1552.2V82.1555H1557.81ZM1554.4 80.2024V65.9268H1557.92C1562.18 65.9268 1564.35 68.6257 1564.35 73.0291C1564.35 77.468 1562.18 80.2024 1557.67 80.2024H1554.4ZM1575.43 82.4396C1579.12 82.4396 1581.61 79.6342 1581.61 75.4084C1581.61 71.147 1579.12 68.3416 1575.43 68.3416C1571.73 68.3416 1569.25 71.147 1569.25 75.4084C1569.25 79.6342 1571.73 82.4396 1575.43 82.4396ZM1575.43 80.5575C1572.62 80.5575 1571.34 78.1427 1571.34 75.4084C1571.34 72.674 1572.62 70.2237 1575.43 70.2237C1578.23 70.2237 1579.51 72.674 1579.51 75.4084C1579.51 78.1427 1578.23 80.5575 1575.43 80.5575ZM1590.31 87.5532C1593.57 87.5532 1596.2 86.0618 1596.2 82.5461V68.5192H1594.18V70.6853H1593.97C1593.5 69.9751 1592.65 68.3416 1589.99 68.3416C1586.54 68.3416 1584.16 71.076 1584.16 75.2663C1584.16 79.5277 1586.65 81.9424 1589.95 81.9424C1592.62 81.9424 1593.47 80.3799 1593.93 79.6342H1594.11V82.4041C1594.11 84.6768 1592.51 85.7067 1590.31 85.7067C1587.83 85.7067 1586.96 84.4016 1586.4 83.647L1584.73 84.8189C1585.58 86.2482 1587.26 87.5532 1590.31 87.5532ZM1590.24 80.0603C1587.61 80.0603 1586.26 78.0717 1586.26 75.2308C1586.26 72.4609 1587.57 70.2237 1590.24 70.2237C1592.79 70.2237 1594.14 72.2834 1594.14 75.2308C1594.14 78.2493 1592.76 80.0603 1590.24 80.0603ZM1605.76 82.4396C1608.52 82.4396 1610.55 81.0547 1611.19 78.995L1609.16 78.4268C1608.63 79.8473 1607.4 80.5575 1605.76 80.5575C1603.3 80.5575 1601.6 78.9684 1601.5 76.0476H1611.4V75.1598C1611.4 70.0817 1608.38 68.3416 1605.54 68.3416C1601.85 68.3416 1599.4 71.2535 1599.4 75.4439C1599.4 79.6342 1601.81 82.4396 1605.76 82.4396ZM1601.5 74.2365C1601.64 72.1147 1603.14 70.2237 1605.54 70.2237C1607.81 70.2237 1609.27 71.9282 1609.27 74.2365H1601.5ZM1620.13 82.4396C1623.15 82.4396 1625.14 80.593 1625.49 78.1782H1623.4C1623 79.6697 1621.76 80.5575 1620.13 80.5575C1617.64 80.5575 1616.04 78.4978 1616.04 75.3373C1616.04 72.2478 1617.68 70.2237 1620.13 70.2237C1621.97 70.2237 1623.08 71.3601 1623.4 72.603H1625.49C1625.14 70.0461 1622.97 68.3416 1620.09 68.3416C1616.4 68.3416 1613.95 71.2535 1613.95 75.4084C1613.95 79.4922 1616.29 82.4396 1620.13 82.4396ZM1634.09 82.4396C1637.79 82.4396 1640.27 79.6342 1640.27 75.4084C1640.27 71.147 1637.79 68.3416 1634.09 68.3416C1630.4 68.3416 1627.91 71.147 1627.91 75.4084C1627.91 79.6342 1630.4 82.4396 1634.09 82.4396ZM1634.09 80.5575C1631.29 80.5575 1630.01 78.1427 1630.01 75.4084C1630.01 72.674 1631.29 70.2237 1634.09 70.2237C1636.9 70.2237 1638.18 72.674 1638.18 75.4084C1638.18 78.1427 1636.9 80.5575 1634.09 80.5575ZM1643.47 82.1555H1645.57V68.5192H1643.47V82.1555ZM1644.54 66.2464C1645.35 66.2464 1646.03 65.6072 1646.03 64.826C1646.03 64.0447 1645.35 63.4055 1644.54 63.4055C1643.72 63.4055 1643.04 64.0447 1643.04 64.826C1643.04 65.6072 1643.72 66.2464 1644.54 66.2464ZM1651.5 73.9524C1651.5 71.5731 1652.97 70.2237 1654.98 70.2237C1656.92 70.2237 1658.1 71.4932 1658.1 73.6328V82.1555H1660.2V73.4907C1660.2 70.0106 1658.34 68.3416 1655.58 68.3416C1653.52 68.3416 1652.24 69.2649 1651.6 70.6498H1651.43V68.5192H1649.4V82.1555H1651.5V73.9524Z" fill="white"/>
<line x1="1742.25" y1="41" x2="1742.25" y2="161.6" stroke="white" stroke-width="0.5"/>
<line x1="1804.67" y1="41" x2="1804.67" y2="161.6" stroke="white" stroke-width="0.5"/>
<line x1="1867.1" y1="41" x2="1867.1" y2="161.6" stroke="white" stroke-width="0.5"/>
<line x1="1783.87" y1="41" x2="1783.87" y2="161.6" stroke="white" stroke-width="0.5"/>
<line x1="1846.29" y1="41" x2="1846.29" y2="161.6" stroke="white" stroke-width="0.5"/>
<line x1="1908.72" y1="41" x2="1908.72" y2="161.6" stroke="white" stroke-width="0.5"/>
<line x1="1763.06" y1="41" x2="1763.06" y2="161.6" stroke="white" stroke-width="0.5"/>
<line x1="1825.48" y1="41" x2="1825.48" y2="161.6" stroke="white" stroke-width="0.5"/>
<line x1="1887.91" y1="41" x2="1887.91" y2="161.6" stroke="white" stroke-width="0.5"/>
<path d="M1743.49 125.867L1750.17 119.167L1762.81 133.311L1783.62 112.467L1792.53 125.867L1804.42 95.3444L1825.23 64.0777L1844.55 100.556L1854.96 119.167L1867.59 78.9666L1886.91 64.0777L1907.72 52.1666" stroke="white"/>
<rect x="2008" width="434" height="201" fill="#0A0909"/>
<rect x="2008" width="434" height="201" fill="#0A0909"/>
<path d="M2056.86 134.473H2058.32V132.493C2062.05 132.235 2064.14 130.034 2064.14 127.264C2064.14 123.855 2060.91 122.754 2059.03 122.257L2058.32 122.061V115.749C2060.2 115.936 2061.57 116.948 2061.76 118.564H2063.89C2063.8 115.971 2061.53 114 2058.32 113.787V111.745H2056.86V113.814C2053.82 114.125 2051.53 116.06 2051.53 118.848C2051.53 121.298 2053.31 122.754 2056.15 123.571L2056.86 123.775V130.495C2055 130.3 2053.47 129.341 2053.31 127.512H2051.04C2051.24 130.309 2053.37 132.262 2056.86 132.493V134.473ZM2058.32 130.495V124.192L2058.39 124.21C2060.31 124.743 2062.01 125.417 2062.01 127.228C2062.01 129.013 2060.47 130.256 2058.32 130.495ZM2056.86 121.671C2055.51 121.289 2053.66 120.543 2053.66 118.741C2053.66 117.205 2054.91 116.033 2056.86 115.776V121.671ZM2067.01 128.471H2075.57V132.2H2077.67V128.471H2080.15V126.518H2077.67V114.018H2075L2067.01 126.66V128.471ZM2075.57 126.518H2069.39V126.376L2075.43 116.824H2075.57V126.518ZM2084.05 132.2H2086.36L2094.45 116.078V114.018H2082.81V115.971H2092.18V116.113L2084.05 132.2ZM2097.8 129.714H2095.53L2095.42 130.708C2095.16 133.114 2094.66 135.511 2094.43 136.639H2096.02C2096.45 135.431 2097.35 132.697 2097.66 130.673L2097.8 129.714ZM2107.26 113.77C2103.57 113.725 2101.19 116.504 2101.19 119.842C2101.19 123.358 2103.78 125.879 2106.91 125.879C2108.79 125.879 2110.39 124.956 2111.38 123.464H2111.52C2111.52 127.939 2109.78 130.495 2106.98 130.495C2105.06 130.495 2103.89 129.288 2103.5 127.619H2101.33C2101.76 130.495 2103.92 132.449 2106.98 132.449C2111.06 132.449 2113.58 128.826 2113.58 122.363C2113.58 115.687 2110.25 113.805 2107.26 113.77ZM2107.26 115.723C2109.54 115.723 2111.2 117.676 2111.2 119.806C2111.2 121.973 2109.43 123.926 2107.19 123.926C2104.95 123.926 2103.32 122.115 2103.32 119.842C2103.32 117.569 2105.03 115.723 2107.26 115.723ZM2122.76 132.449C2126.22 132.449 2128.76 129.892 2128.76 126.412C2128.76 122.887 2126.31 120.304 2122.97 120.304C2121.74 120.304 2120.55 120.739 2119.81 121.333H2119.7L2120.34 115.971H2127.94V114.018H2118.5L2117.39 122.967L2119.45 123.216C2120.21 122.674 2121.5 122.283 2122.61 122.292C2124.93 122.31 2126.63 124.068 2126.63 126.447C2126.63 128.782 2124.99 130.495 2122.76 130.495C2120.89 130.495 2119.41 129.297 2119.24 127.654H2117.11C2117.24 130.424 2119.63 132.449 2122.76 132.449ZM2131.86 128.471H2140.42V132.2H2142.51V128.471H2145V126.518H2142.51V114.018H2139.85L2131.86 126.66V128.471ZM2140.42 126.518H2134.24V126.376L2140.27 116.824H2140.42V126.518ZM2149.03 132.342C2149.91 132.342 2150.63 131.623 2150.63 130.744C2150.63 129.865 2149.91 129.146 2149.03 129.146C2148.15 129.146 2147.43 129.865 2147.43 130.744C2147.43 131.623 2148.15 132.342 2149.03 132.342ZM2159.81 132.449C2163.34 132.449 2165.96 130.238 2165.96 127.264C2165.96 124.956 2164.59 123.278 2162.3 122.896V122.754C2164.14 122.195 2165.28 120.685 2165.28 118.635C2165.28 116.06 2163.25 113.77 2159.89 113.77C2156.74 113.77 2154.13 115.705 2154.03 118.564H2156.16C2156.24 116.753 2157.96 115.687 2159.85 115.687C2161.86 115.687 2163.15 116.903 2163.15 118.741C2163.15 120.659 2161.65 121.902 2159.5 121.902H2158.04V123.855H2159.5C2162.26 123.855 2163.79 125.257 2163.79 127.264C2163.79 129.19 2162.11 130.495 2159.78 130.495C2157.68 130.495 2156.01 129.412 2155.87 127.654H2153.64C2153.77 130.513 2156.29 132.449 2159.81 132.449ZM2175.98 114.018H2173.78L2169.23 117.037V119.274L2173.67 116.326H2173.78V132.2H2175.98V114.018Z" fill="white"/>
<path d="M2160.17 71.0164L2147.38 83.8313L2145.28 81.726L2158.07 68.9111H2146.79V65.9333H2163.14V82.3111H2160.17V71.0164Z" fill="#26AE60"/>
<path d="M2052.2 82.1555H2058.77C2063.07 82.1555 2064.84 80.0603 2064.84 77.326C2064.84 74.4496 2062.86 72.8871 2061.19 72.7805V72.603C2062.75 72.1768 2064.13 71.147 2064.13 68.8032C2064.13 66.1399 2062.36 63.9737 2058.56 63.9737H2052.2V82.1555ZM2054.4 80.2024V73.8814H2058.88C2061.26 73.8814 2062.75 75.4794 2062.75 77.326C2062.75 78.924 2061.65 80.2024 2058.77 80.2024H2054.4ZM2054.4 71.9638V65.9268H2058.56C2060.97 65.9268 2062.04 67.2052 2062.04 68.8032C2062.04 70.7209 2060.48 71.9638 2058.49 71.9638H2054.4ZM2068.18 82.1555H2070.27V68.5192H2068.18V82.1555ZM2069.24 66.2464C2070.06 66.2464 2070.73 65.6072 2070.73 64.826C2070.73 64.0447 2070.06 63.4055 2069.24 63.4055C2068.43 63.4055 2067.75 64.0447 2067.75 64.826C2067.75 65.6072 2068.43 66.2464 2069.24 66.2464ZM2080.04 68.5192H2077.13V65.2521H2075.03V68.5192H2072.97V70.2947H2075.03V78.8174C2075.03 81.1967 2076.95 82.3331 2078.73 82.3331C2079.51 82.3331 2080 82.191 2080.29 82.0845L2079.86 80.2024C2079.69 80.2379 2079.4 80.3089 2078.94 80.3089C2078.02 80.3089 2077.13 80.0248 2077.13 78.2493V70.2947H2080.04V68.5192ZM2088.59 82.4396C2091.6 82.4396 2093.59 80.593 2093.95 78.1782H2091.85C2091.46 79.6697 2090.22 80.5575 2088.59 80.5575C2086.1 80.5575 2084.5 78.4978 2084.5 75.3373C2084.5 72.2478 2086.14 70.2237 2088.59 70.2237C2090.43 70.2237 2091.53 71.3601 2091.85 72.603H2093.95C2093.59 70.0461 2091.43 68.3416 2088.55 68.3416C2084.86 68.3416 2082.41 71.2535 2082.41 75.4084C2082.41 79.4922 2084.75 82.4396 2088.59 82.4396ZM2102.55 82.4396C2106.24 82.4396 2108.73 79.6342 2108.73 75.4084C2108.73 71.147 2106.24 68.3416 2102.55 68.3416C2098.86 68.3416 2096.37 71.147 2096.37 75.4084C2096.37 79.6342 2098.86 82.4396 2102.55 82.4396ZM2102.55 80.5575C2099.74 80.5575 2098.47 78.1427 2098.47 75.4084C2098.47 72.674 2099.74 70.2237 2102.55 70.2237C2105.36 70.2237 2106.63 72.674 2106.63 75.4084C2106.63 78.1427 2105.36 80.5575 2102.55 80.5575ZM2111.93 82.1555H2114.02V68.5192H2111.93V82.1555ZM2112.99 66.2464C2113.81 66.2464 2114.48 65.6072 2114.48 64.826C2114.48 64.0447 2113.81 63.4055 2112.99 63.4055C2112.18 63.4055 2111.5 64.0447 2111.5 64.826C2111.5 65.6072 2112.18 66.2464 2112.99 66.2464ZM2119.96 73.9524C2119.96 71.5731 2121.43 70.2237 2123.44 70.2237C2125.38 70.2237 2126.56 71.4932 2126.56 73.6328V82.1555H2128.66V73.4907C2128.66 70.0106 2126.8 68.3416 2124.04 68.3416C2121.98 68.3416 2120.7 69.2649 2120.06 70.6498H2119.88V68.5192H2117.86V82.1555H2119.96V73.9524Z" fill="white"/>
<line x1="2242.25" y1="41" x2="2242.25" y2="161.6" stroke="white" stroke-width="0.5"/>
<line x1="2304.67" y1="41" x2="2304.67" y2="161.6" stroke="white" stroke-width="0.5"/>
<line x1="2367.1" y1="41" x2="2367.1" y2="161.6" stroke="white" stroke-width="0.5"/>
<line x1="2283.87" y1="41" x2="2283.87" y2="161.6" stroke="white" stroke-width="0.5"/>
<line x1="2346.29" y1="41" x2="2346.29" y2="161.6" stroke="white" stroke-width="0.5"/>
<line x1="2408.72" y1="41" x2="2408.72" y2="161.6" stroke="white" stroke-width="0.5"/>
<line x1="2263.06" y1="41" x2="2263.06" y2="161.6" stroke="white" stroke-width="0.5"/>
<line x1="2325.48" y1="41" x2="2325.48" y2="161.6" stroke="white" stroke-width="0.5"/>
<line x1="2387.91" y1="41" x2="2387.91" y2="161.6" stroke="white" stroke-width="0.5"/>
<path d="M2243.49 125.867L2250.17 119.167L2262.81 133.311L2283.62 112.467L2292.53 125.867L2304.42 95.3444L2325.23 64.0777L2344.55 100.556L2354.96 119.167L2367.59 78.9666L2386.91 64.0777L2407.72 52.1666" stroke="white"/>
<rect x="2509" width="434" height="201" fill="#0A0909"/>
<rect x="2509" width="434" height="201" fill="#0A0909"/>
<path d="M2557.86 134.473H2559.32V132.493C2563.05 132.235 2565.14 130.034 2565.14 127.264C2565.14 123.855 2561.91 122.754 2560.03 122.257L2559.32 122.061V115.749C2561.2 115.936 2562.57 116.948 2562.76 118.564H2564.89C2564.8 115.971 2562.53 114 2559.32 113.787V111.745H2557.86V113.814C2554.82 114.125 2552.53 116.06 2552.53 118.848C2552.53 121.298 2554.31 122.754 2557.15 123.571L2557.86 123.775V130.495C2556 130.3 2554.47 129.341 2554.31 127.512H2552.04C2552.24 130.309 2554.37 132.262 2557.86 132.493V134.473ZM2559.32 130.495V124.192L2559.39 124.21C2561.31 124.743 2563.01 125.417 2563.01 127.228C2563.01 129.013 2561.47 130.256 2559.32 130.495ZM2557.86 121.671C2556.51 121.289 2554.66 120.543 2554.66 118.741C2554.66 117.205 2555.91 116.033 2557.86 115.776V121.671ZM2574.58 132.449C2578.11 132.449 2580.73 130.238 2580.73 127.264C2580.73 124.956 2579.36 123.278 2577.07 122.896V122.754C2578.91 122.195 2580.05 120.685 2580.05 118.635C2580.05 116.06 2578.02 113.77 2574.66 113.77C2571.51 113.77 2568.9 115.705 2568.8 118.564H2570.93C2571.01 116.753 2572.73 115.687 2574.62 115.687C2576.63 115.687 2577.92 116.903 2577.92 118.741C2577.92 120.659 2576.42 121.902 2574.26 121.902H2572.81V123.855H2574.26C2577.03 123.855 2578.56 125.257 2578.56 127.264C2578.56 129.19 2576.88 130.495 2574.55 130.495C2572.44 130.495 2570.78 129.412 2570.64 127.654H2568.41C2568.54 130.513 2571.06 132.449 2574.58 132.449ZM2586.96 129.714H2584.69L2584.58 130.708C2584.32 133.114 2583.82 135.511 2583.58 136.639H2585.18C2585.61 135.431 2586.51 132.697 2586.82 130.673L2586.96 129.714ZM2595.02 114.018H2592.82L2588.28 117.037V119.274L2592.72 116.326H2592.82V132.2H2595.02V114.018ZM2600.25 132.2H2611.72V130.247H2603.27V130.105L2607.35 125.737C2610.48 122.39 2611.4 120.827 2611.4 118.812C2611.4 116.007 2609.13 113.77 2605.93 113.77C2602.75 113.77 2600.32 115.936 2600.32 119.132H2602.42C2602.42 117.063 2603.76 115.687 2605.86 115.687C2607.83 115.687 2609.34 116.895 2609.34 118.812C2609.34 120.49 2608.36 121.733 2606.25 124.032L2600.25 130.602V132.2ZM2621.32 132.449C2625.33 132.449 2627.64 129.048 2627.64 123.109C2627.64 117.214 2625.3 113.77 2621.32 113.77C2617.34 113.77 2615 117.214 2615 123.109C2615 129.048 2617.31 132.449 2621.32 132.449ZM2621.32 130.495C2618.67 130.495 2617.13 127.841 2617.13 123.109C2617.13 118.386 2618.69 115.687 2621.32 115.687C2623.95 115.687 2625.51 118.386 2625.51 123.109C2625.51 127.841 2623.97 130.495 2621.32 130.495ZM2631.94 132.342C2632.82 132.342 2633.54 131.623 2633.54 130.744C2633.54 129.865 2632.82 129.146 2631.94 129.146C2631.06 129.146 2630.34 129.865 2630.34 130.744C2630.34 131.623 2631.06 132.342 2631.94 132.342ZM2642.56 132.449C2646.57 132.449 2648.88 129.048 2648.88 123.109C2648.88 117.214 2646.54 113.77 2642.56 113.77C2638.58 113.77 2636.24 117.214 2636.24 123.109C2636.24 129.048 2638.55 132.449 2642.56 132.449ZM2642.56 130.495C2639.91 130.495 2638.37 127.841 2638.37 123.109C2638.37 118.386 2639.93 115.687 2642.56 115.687C2645.19 115.687 2646.75 118.386 2646.75 123.109C2646.75 127.841 2645.21 130.495 2642.56 130.495ZM2658.29 132.449C2661.97 132.493 2664.36 129.723 2664.36 126.341C2664.36 122.825 2661.76 120.304 2658.65 120.304C2656.77 120.304 2655.17 121.218 2654.17 122.718H2654.03C2654.04 118.288 2655.76 115.723 2658.58 115.723C2660.49 115.723 2661.65 116.93 2662.06 118.564H2664.22C2663.78 115.74 2661.63 113.77 2658.58 113.77C2654.48 113.77 2651.97 117.392 2651.97 123.819C2651.97 130.54 2655.31 132.413 2658.29 132.449ZM2658.29 130.495C2656.01 130.495 2654.34 128.551 2654.35 126.376C2654.36 124.201 2656.11 122.257 2658.36 122.257C2660.59 122.257 2662.23 124.086 2662.23 126.341C2662.23 128.649 2660.52 130.495 2658.29 130.495Z" fill="white"/>
<path d="M2689.79 71.0164L2676.99 83.8313L2674.89 81.726L2687.68 68.9111H2676.41V65.9333H2692.76V82.3111H2689.79V71.0164Z" fill="#26AE60"/>
<path d="M2553.2 82.1555H2564.32V80.2024H2555.4V74.0234H2563.61V72.0703H2555.4V65.9268H2564.17V63.9737H2553.2V82.1555ZM2573.79 68.5192H2570.88V65.2521H2568.78V68.5192H2566.72V70.2947H2568.78V78.8174C2568.78 81.1967 2570.7 82.3331 2572.48 82.3331C2573.26 82.3331 2573.75 82.191 2574.04 82.0845L2573.61 80.2024C2573.43 80.2379 2573.15 80.3089 2572.69 80.3089C2571.77 80.3089 2570.88 80.0248 2570.88 78.2493V70.2947H2573.79V68.5192ZM2579.33 73.9524C2579.33 71.5731 2580.85 70.2237 2582.92 70.2237C2584.89 70.2237 2586.08 71.4666 2586.08 73.6328V82.1555H2588.17V73.4907C2588.17 69.984 2586.31 68.3416 2583.52 68.3416C2581.37 68.3416 2580.15 69.2383 2579.51 70.6498H2579.33V63.9737H2577.23V82.1555H2579.33V73.9524ZM2597.72 82.4396C2600.49 82.4396 2602.52 81.0547 2603.16 78.995L2601.13 78.4268C2600.6 79.8473 2599.36 80.5575 2597.72 80.5575C2595.26 80.5575 2593.57 78.9684 2593.47 76.0476H2603.37V75.1598C2603.37 70.0817 2600.35 68.3416 2597.51 68.3416C2593.82 68.3416 2591.37 71.2535 2591.37 75.4439C2591.37 79.6342 2593.78 82.4396 2597.72 82.4396ZM2593.47 74.2365C2593.61 72.1147 2595.11 70.2237 2597.51 70.2237C2599.78 70.2237 2601.24 71.9282 2601.24 74.2365H2593.47ZM2606.56 82.1555H2608.65V73.5263C2608.65 71.6797 2610.11 70.3302 2612.1 70.3302C2612.65 70.3302 2613.23 70.4368 2613.37 70.4723V68.3416C2613.13 68.3238 2612.58 68.3061 2612.27 68.3061C2610.64 68.3061 2609.22 69.2294 2608.72 70.5788H2608.58V68.5192H2606.56V82.1555ZM2621.16 82.4396C2623.93 82.4396 2625.95 81.0547 2626.59 78.995L2624.57 78.4268C2624.04 79.8473 2622.8 80.5575 2621.16 80.5575C2618.7 80.5575 2617 78.9684 2616.91 76.0476H2626.81V75.1598C2626.81 70.0817 2623.79 68.3416 2620.95 68.3416C2617.25 68.3416 2614.8 71.2535 2614.8 75.4439C2614.8 79.6342 2617.22 82.4396 2621.16 82.4396ZM2616.91 74.2365C2617.05 72.1147 2618.55 70.2237 2620.95 70.2237C2623.22 70.2237 2624.67 71.9282 2624.67 74.2365H2616.91ZM2638.59 76.5802C2638.59 79.1371 2636.63 80.3089 2635.07 80.3089C2633.33 80.3089 2632.09 79.0305 2632.09 77.0419V68.5192H2629.99V77.1839C2629.99 80.664 2631.84 82.3331 2634.4 82.3331C2636.46 82.3331 2637.81 81.2322 2638.44 79.8473H2638.59V82.1555H2640.68V68.5192H2638.59V76.5802ZM2644.52 82.1555H2646.61V73.6328C2646.61 71.6353 2648.07 70.2237 2649.7 70.2237C2651.29 70.2237 2652.4 71.2624 2652.4 72.816V82.1555H2654.53V73.2777C2654.53 71.5199 2655.63 70.2237 2657.55 70.2237C2659.04 70.2237 2660.32 71.0138 2660.32 73.0291V82.1555H2662.42V73.0291C2662.42 69.8242 2660.69 68.3416 2658.26 68.3416C2656.31 68.3416 2654.88 69.2383 2654.18 70.6498H2654.04C2653.36 69.1939 2652.17 68.3416 2650.38 68.3416C2648.6 68.3416 2647.29 69.1939 2646.72 70.6498H2646.54V68.5192H2644.52V82.1555Z" fill="white"/>
<line x1="2743.25" y1="41" x2="2743.25" y2="161.6" stroke="white" stroke-width="0.5"/>
<line x1="2805.67" y1="41" x2="2805.67" y2="161.6" stroke="white" stroke-width="0.5"/>
<line x1="2868.1" y1="41" x2="2868.1" y2="161.6" stroke="white" stroke-width="0.5"/>
<line x1="2784.87" y1="41" x2="2784.87" y2="161.6" stroke="white" stroke-width="0.5"/>
<line x1="2847.29" y1="41" x2="2847.29" y2="161.6" stroke="white" stroke-width="0.5"/>
<line x1="2909.72" y1="41" x2="2909.72" y2="161.6" stroke="white" stroke-width="0.5"/>
<line x1="2764.06" y1="41" x2="2764.06" y2="161.6" stroke="white" stroke-width="0.5"/>
<line x1="2826.48" y1="41" x2="2826.48" y2="161.6" stroke="white" stroke-width="0.5"/>
<line x1="2888.91" y1="41" x2="2888.91" y2="161.6" stroke="white" stroke-width="0.5"/>
<path d="M2744.49 125.867L2751.17 119.167L2763.81 133.311L2784.62 112.467L2793.53 125.867L2805.42 95.3444L2826.23 64.0777L2845.55 100.556L2855.96 119.167L2868.59 78.9666L2887.91 64.0777L2908.72 52.1666" stroke="white"/>
<rect x="3016" width="434" height="201" fill="#0A0909"/>
<rect x="3016" width="434" height="201" fill="#0A0909"/>
<path d="M3064.86 134.473H3066.32V132.493C3070.05 132.235 3072.14 130.034 3072.14 127.264C3072.14 123.855 3068.91 122.754 3067.03 122.257L3066.32 122.061V115.749C3068.2 115.936 3069.57 116.948 3069.76 118.564H3071.89C3071.8 115.971 3069.53 114 3066.32 113.787V111.745H3064.86V113.814C3061.82 114.125 3059.53 116.06 3059.53 118.848C3059.53 121.298 3061.31 122.754 3064.15 123.571L3064.86 123.775V130.495C3063 130.3 3061.47 129.341 3061.31 127.512H3059.04C3059.24 130.309 3061.37 132.262 3064.86 132.493V134.473ZM3066.32 130.495V124.192L3066.39 124.21C3068.31 124.743 3070.01 125.417 3070.01 127.228C3070.01 129.013 3068.47 130.256 3066.32 130.495ZM3064.86 121.671C3063.51 121.289 3061.66 120.543 3061.66 118.741C3061.66 117.205 3062.91 116.033 3064.86 115.776V121.671ZM3075.01 128.471H3083.57V132.2H3085.67V128.471H3088.15V126.518H3085.67V114.018H3083L3075.01 126.66V128.471ZM3083.57 126.518H3077.39V126.376L3083.43 116.824H3083.57V126.518ZM3092.05 132.2H3094.36L3102.45 116.078V114.018H3090.81V115.971H3100.18V116.113L3092.05 132.2ZM3111.41 132.449C3115.08 132.493 3117.48 129.723 3117.48 126.341C3117.48 122.825 3114.88 120.304 3111.76 120.304C3109.89 120.304 3108.28 121.218 3107.29 122.718H3107.15C3107.16 118.288 3108.88 115.723 3111.69 115.723C3113.61 115.723 3114.77 116.93 3115.17 118.564H3117.34C3116.9 115.74 3114.75 113.77 3111.69 113.77C3107.6 113.77 3105.09 117.392 3105.09 123.819C3105.09 130.54 3108.43 132.413 3111.41 132.449ZM3111.41 130.495C3109.13 130.495 3107.46 128.551 3107.47 126.376C3107.48 124.201 3109.23 122.257 3111.48 122.257C3113.71 122.257 3115.35 124.086 3115.35 126.341C3115.35 128.649 3113.64 130.495 3111.41 130.495ZM3121.68 132.342C3122.56 132.342 3123.28 131.623 3123.28 130.744C3123.28 129.865 3122.56 129.146 3121.68 129.146C3120.8 129.146 3120.08 129.865 3120.08 130.744C3120.08 131.623 3120.8 132.342 3121.68 132.342ZM3131.22 114.018H3129.02L3124.48 117.037V119.274L3128.91 116.326H3129.02V132.2H3131.22V114.018ZM3142.13 132.449C3145.6 132.449 3148.13 129.892 3148.13 126.412C3148.13 122.887 3145.68 120.304 3142.35 120.304C3141.12 120.304 3139.93 120.739 3139.19 121.333H3139.08L3139.72 115.971H3147.32V114.018H3137.87L3136.77 122.967L3138.83 123.216C3139.59 122.674 3140.87 122.283 3141.99 122.292C3144.31 122.31 3146 124.068 3146 126.447C3146 128.782 3144.37 130.495 3142.13 130.495C3140.27 130.495 3138.79 129.297 3138.62 127.654H3136.49C3136.62 130.424 3139.01 132.449 3142.13 132.449Z" fill="white"/>
<path d="M3180.79 71.0164L3167.99 83.8313L3165.89 81.726L3178.68 68.9111H3167.41V65.9333H3183.76V82.3111H3180.79V71.0164Z" fill="#26AE60"/>
<path d="M3060.2 82.1555H3066.77C3071.07 82.1555 3072.84 80.0603 3072.84 77.326C3072.84 74.4496 3070.86 72.8871 3069.19 72.7805V72.603C3070.75 72.1768 3072.13 71.147 3072.13 68.8032C3072.13 66.1399 3070.36 63.9737 3066.56 63.9737H3060.2V82.1555ZM3062.4 80.2024V73.8814H3066.88C3069.26 73.8814 3070.75 75.4794 3070.75 77.326C3070.75 78.924 3069.65 80.2024 3066.77 80.2024H3062.4ZM3062.4 71.9638V65.9268H3066.56C3068.97 65.9268 3070.04 67.2052 3070.04 68.8032C3070.04 70.7209 3068.48 71.9638 3066.49 71.9638H3062.4ZM3076.18 82.1555H3078.27V68.5192H3076.18V82.1555ZM3077.24 66.2464C3078.06 66.2464 3078.73 65.6072 3078.73 64.826C3078.73 64.0447 3078.06 63.4055 3077.24 63.4055C3076.43 63.4055 3075.75 64.0447 3075.75 64.826C3075.75 65.6072 3076.43 66.2464 3077.24 66.2464ZM3084.21 73.9524C3084.21 71.5731 3085.68 70.2237 3087.69 70.2237C3089.63 70.2237 3090.81 71.4932 3090.81 73.6328V82.1555H3092.91V73.4907C3092.91 70.0106 3091.05 68.3416 3088.29 68.3416C3086.23 68.3416 3084.95 69.2649 3084.31 70.6498H3084.13V68.5192H3082.11V82.1555H3084.21V73.9524ZM3100.75 82.4751C3103.13 82.4751 3104.37 81.1967 3104.8 80.3089H3104.9V82.1555H3107V73.1711C3107 68.8388 3103.69 68.3416 3101.95 68.3416C3099.89 68.3416 3097.55 69.0518 3096.49 71.5376L3098.47 72.2478C3098.94 71.2535 3100.03 70.1882 3102.03 70.1882C3103.95 70.1882 3104.9 71.2091 3104.9 72.9581V73.0291C3104.9 74.0412 3103.87 73.9524 3101.39 74.272C3098.86 74.6005 3096.09 75.1598 3096.09 78.2848C3096.09 80.9481 3098.15 82.4751 3100.75 82.4751ZM3101.07 80.593C3099.4 80.593 3098.19 79.8473 3098.19 78.3913C3098.19 76.7933 3099.65 76.2961 3101.28 76.0831C3102.17 75.9765 3104.55 75.728 3104.9 75.3018V77.2194C3104.9 78.924 3103.55 80.593 3101.07 80.593ZM3112.92 73.9524C3112.92 71.5731 3114.39 70.2237 3116.4 70.2237C3118.34 70.2237 3119.52 71.4932 3119.52 73.6328V82.1555H3121.62V73.4907C3121.62 70.0106 3119.76 68.3416 3117 68.3416C3114.94 68.3416 3113.66 69.2649 3113.02 70.6498H3112.85V68.5192H3110.82V82.1555H3112.92V73.9524ZM3130.98 82.4396C3134 82.4396 3135.99 80.593 3136.35 78.1782H3134.25C3133.86 79.6697 3132.62 80.5575 3130.98 80.5575C3128.5 80.5575 3126.9 78.4978 3126.9 75.3373C3126.9 72.2478 3128.53 70.2237 3130.98 70.2237C3132.83 70.2237 3133.93 71.3601 3134.25 72.603H3136.35C3135.99 70.0461 3133.83 68.3416 3130.95 68.3416C3127.26 68.3416 3124.81 71.2535 3124.81 75.4084C3124.81 79.4922 3127.15 82.4396 3130.98 82.4396ZM3145.13 82.4396C3147.9 82.4396 3149.92 81.0547 3150.56 78.995L3148.54 78.4268C3148 79.8473 3146.77 80.5575 3145.13 80.5575C3142.67 80.5575 3140.97 78.9684 3140.87 76.0476H3150.77V75.1598C3150.77 70.0817 3147.75 68.3416 3144.91 68.3416C3141.22 68.3416 3138.77 71.2535 3138.77 75.4439C3138.77 79.6342 3141.19 82.4396 3145.13 82.4396ZM3140.87 74.2365C3141.02 72.1147 3142.52 70.2237 3144.91 70.2237C3147.19 70.2237 3148.64 71.9282 3148.64 74.2365H3140.87Z" fill="white"/>
<line x1="3250.25" y1="41" x2="3250.25" y2="161.6" stroke="white" stroke-width="0.5"/>
<line x1="3312.67" y1="41" x2="3312.67" y2="161.6" stroke="white" stroke-width="0.5"/>
<line x1="3375.1" y1="41" x2="3375.1" y2="161.6" stroke="white" stroke-width="0.5"/>
<line x1="3291.87" y1="41" x2="3291.87" y2="161.6" stroke="white" stroke-width="0.5"/>
<line x1="3354.29" y1="41" x2="3354.29" y2="161.6" stroke="white" stroke-width="0.5"/>
<line x1="3416.72" y1="41" x2="3416.72" y2="161.6" stroke="white" stroke-width="0.5"/>
<line x1="3271.06" y1="41" x2="3271.06" y2="161.6" stroke="white" stroke-width="0.5"/>
<line x1="3333.48" y1="41" x2="3333.48" y2="161.6" stroke="white" stroke-width="0.5"/>
<line x1="3395.91" y1="41" x2="3395.91" y2="161.6" stroke="white" stroke-width="0.5"/>
<path d="M3251.49 125.867L3258.17 119.167L3270.81 133.311L3291.62 112.467L3300.53 125.867L3312.42 95.3444L3333.23 64.0777L3352.55 100.556L3362.96 119.167L3375.59 78.9666L3394.91 64.0777L3415.72 52.1666" stroke="white"/>
<rect x="3523" width="434" height="201" fill="#0A0909"/>
<rect x="3523" width="434" height="201" fill="#0A0909"/>
<path d="M3571.86 134.473H3573.32V132.493C3577.05 132.235 3579.14 130.034 3579.14 127.264C3579.14 123.855 3575.91 122.754 3574.03 122.257L3573.32 122.061V115.749C3575.2 115.936 3576.57 116.948 3576.76 118.564H3578.89C3578.8 115.971 3576.53 114 3573.32 113.787V111.745H3571.86V113.814C3568.82 114.125 3566.53 116.06 3566.53 118.848C3566.53 121.298 3568.31 122.754 3571.15 123.571L3571.86 123.775V130.495C3570 130.3 3568.47 129.341 3568.31 127.512H3566.04C3566.24 130.309 3568.37 132.262 3571.86 132.493V134.473ZM3573.32 130.495V124.192L3573.39 124.21C3575.31 124.743 3577.01 125.417 3577.01 127.228C3577.01 129.013 3575.47 130.256 3573.32 130.495ZM3571.86 121.671C3570.51 121.289 3568.66 120.543 3568.66 118.741C3568.66 117.205 3569.91 116.033 3571.86 115.776V121.671ZM3588.37 132.449C3592.38 132.449 3594.69 129.048 3594.69 123.109C3594.69 117.214 3592.35 113.77 3588.37 113.77C3584.39 113.77 3582.05 117.214 3582.05 123.109C3582.05 129.048 3584.36 132.449 3588.37 132.449ZM3588.37 130.495C3585.73 130.495 3584.18 127.841 3584.18 123.109C3584.18 118.386 3585.74 115.687 3588.37 115.687C3591 115.687 3592.56 118.386 3592.56 123.109C3592.56 127.841 3591.02 130.495 3588.37 130.495ZM3598.99 132.342C3599.87 132.342 3600.59 131.623 3600.59 130.744C3600.59 129.865 3599.87 129.146 3598.99 129.146C3598.11 129.146 3597.4 129.865 3597.4 130.744C3597.4 131.623 3598.11 132.342 3598.99 132.342ZM3604.32 132.2H3615.79V130.247H3607.33V130.105L3611.42 125.737C3614.54 122.39 3615.47 120.827 3615.47 118.812C3615.47 116.007 3613.19 113.77 3610 113.77C3606.81 113.77 3604.39 115.936 3604.39 119.132H3606.48C3606.48 117.063 3607.82 115.687 3609.93 115.687C3611.9 115.687 3613.41 116.895 3613.41 118.812C3613.41 120.49 3612.42 121.733 3610.32 124.032L3604.32 130.602V132.2ZM3625.28 132.449C3628.91 132.449 3631.44 130.327 3631.46 127.37C3631.44 125.071 3629.9 123.118 3627.94 122.754V122.647C3629.64 122.204 3630.76 120.534 3630.78 118.599C3630.76 115.829 3628.44 113.77 3625.28 113.77C3622.08 113.77 3619.75 115.829 3619.77 118.599C3619.75 120.534 3620.87 122.204 3622.61 122.647V122.754C3620.62 123.118 3619.08 125.071 3619.1 127.37C3619.08 130.327 3621.61 132.449 3625.28 132.449ZM3625.28 130.495C3622.78 130.495 3621.25 129.217 3621.26 127.264C3621.25 125.213 3622.94 123.748 3625.28 123.748C3627.58 123.748 3629.27 125.213 3629.29 127.264C3629.27 129.217 3627.74 130.495 3625.28 130.495ZM3625.28 121.866C3623.29 121.866 3621.89 120.623 3621.9 118.741C3621.89 116.895 3623.23 115.687 3625.28 115.687C3627.28 115.687 3628.63 116.895 3628.65 118.741C3628.63 120.623 3627.23 121.866 3625.28 121.866ZM3634.43 128.471H3642.99V132.2H3645.09V128.471H3647.57V126.518H3645.09V114.018H3642.42L3634.43 126.66V128.471ZM3642.99 126.518H3636.81V126.376L3642.85 116.824H3642.99V126.518ZM3656.93 132.449C3660.61 132.493 3663.01 129.723 3663.01 126.341C3663.01 122.825 3660.41 120.304 3657.29 120.304C3655.42 120.304 3653.81 121.218 3652.82 122.718H3652.67C3652.68 118.288 3654.4 115.723 3657.22 115.723C3659.14 115.723 3660.29 116.93 3660.7 118.564H3662.87C3662.42 115.74 3660.27 113.77 3657.22 113.77C3653.13 113.77 3650.61 117.392 3650.61 123.819C3650.61 130.54 3653.95 132.413 3656.93 132.449ZM3656.93 130.495C3654.65 130.495 3652.98 128.551 3652.99 126.376C3653 124.201 3654.75 122.257 3657.01 122.257C3659.23 122.257 3660.88 124.086 3660.88 126.341C3660.88 128.649 3659.16 130.495 3656.93 130.495Z" fill="white"/>
<path d="M3702.79 71.0164L3689.99 83.8313L3687.89 81.726L3700.68 68.9111H3689.41V65.9333H3705.76V82.3111H3702.79V71.0164Z" fill="#26AE60"/>
<path d="M3572.81 82.1555C3578.35 82.1555 3581.48 78.7109 3581.48 73.0291C3581.48 67.3828 3578.35 63.9737 3573.06 63.9737H3567.2V82.1555H3572.81ZM3569.4 80.2024V65.9268H3572.92C3577.18 65.9268 3579.35 68.6257 3579.35 73.0291C3579.35 77.468 3577.18 80.2024 3572.67 80.2024H3569.4ZM3590.43 82.4396C3594.12 82.4396 3596.61 79.6342 3596.61 75.4084C3596.61 71.147 3594.12 68.3416 3590.43 68.3416C3586.73 68.3416 3584.25 71.147 3584.25 75.4084C3584.25 79.6342 3586.73 82.4396 3590.43 82.4396ZM3590.43 80.5575C3587.62 80.5575 3586.34 78.1427 3586.34 75.4084C3586.34 72.674 3587.62 70.2237 3590.43 70.2237C3593.23 70.2237 3594.51 72.674 3594.51 75.4084C3594.51 78.1427 3593.23 80.5575 3590.43 80.5575ZM3605.31 87.5532C3608.57 87.5532 3611.2 86.0618 3611.2 82.5461V68.5192H3609.18V70.6853H3608.97C3608.5 69.9751 3607.65 68.3416 3604.99 68.3416C3601.54 68.3416 3599.16 71.076 3599.16 75.2663C3599.16 79.5277 3601.65 81.9424 3604.95 81.9424C3607.62 81.9424 3608.47 80.3799 3608.93 79.6342H3609.11V82.4041C3609.11 84.6768 3607.51 85.7067 3605.31 85.7067C3602.83 85.7067 3601.96 84.4016 3601.4 83.647L3599.73 84.8189C3600.58 86.2482 3602.26 87.5532 3605.31 87.5532ZM3605.24 80.0603C3602.61 80.0603 3601.26 78.0717 3601.26 75.2308C3601.26 72.4609 3602.57 70.2237 3605.24 70.2237C3607.79 70.2237 3609.14 72.2834 3609.14 75.2308C3609.14 78.2493 3607.76 80.0603 3605.24 80.0603ZM3620.76 82.4396C3623.52 82.4396 3625.55 81.0547 3626.19 78.995L3624.16 78.4268C3623.63 79.8473 3622.4 80.5575 3620.76 80.5575C3618.3 80.5575 3616.6 78.9684 3616.5 76.0476H3626.4V75.1598C3626.4 70.0817 3623.38 68.3416 3620.54 68.3416C3616.85 68.3416 3614.4 71.2535 3614.4 75.4439C3614.4 79.6342 3616.81 82.4396 3620.76 82.4396ZM3616.5 74.2365C3616.64 72.1147 3618.14 70.2237 3620.54 70.2237C3622.81 70.2237 3624.27 71.9282 3624.27 74.2365H3616.5ZM3635.13 82.4396C3638.15 82.4396 3640.14 80.593 3640.49 78.1782H3638.4C3638 79.6697 3636.76 80.5575 3635.13 80.5575C3632.64 80.5575 3631.04 78.4978 3631.04 75.3373C3631.04 72.2478 3632.68 70.2237 3635.13 70.2237C3636.97 70.2237 3638.08 71.3601 3638.4 72.603H3640.49C3640.14 70.0461 3637.97 68.3416 3635.09 68.3416C3631.4 68.3416 3628.95 71.2535 3628.95 75.4084C3628.95 79.4922 3631.29 82.4396 3635.13 82.4396ZM3649.09 82.4396C3652.79 82.4396 3655.27 79.6342 3655.27 75.4084C3655.27 71.147 3652.79 68.3416 3649.09 68.3416C3645.4 68.3416 3642.91 71.147 3642.91 75.4084C3642.91 79.6342 3645.4 82.4396 3649.09 82.4396ZM3649.09 80.5575C3646.29 80.5575 3645.01 78.1427 3645.01 75.4084C3645.01 72.674 3646.29 70.2237 3649.09 70.2237C3651.9 70.2237 3653.18 72.674 3653.18 75.4084C3653.18 78.1427 3651.9 80.5575 3649.09 80.5575ZM3658.47 82.1555H3660.57V68.5192H3658.47V82.1555ZM3659.54 66.2464C3660.35 66.2464 3661.03 65.6072 3661.03 64.826C3661.03 64.0447 3660.35 63.4055 3659.54 63.4055C3658.72 63.4055 3658.04 64.0447 3658.04 64.826C3658.04 65.6072 3658.72 66.2464 3659.54 66.2464ZM3666.5 73.9524C3666.5 71.5731 3667.97 70.2237 3669.98 70.2237C3671.92 70.2237 3673.1 71.4932 3673.1 73.6328V82.1555H3675.2V73.4907C3675.2 70.0106 3673.34 68.3416 3670.58 68.3416C3668.52 68.3416 3667.24 69.2649 3666.6 70.6498H3666.43V68.5192H3664.4V82.1555H3666.5V73.9524Z" fill="white"/>
<line x1="3757.25" y1="41" x2="3757.25" y2="161.6" stroke="white" stroke-width="0.5"/>
<line x1="3819.67" y1="41" x2="3819.67" y2="161.6" stroke="white" stroke-width="0.5"/>
<line x1="3882.1" y1="41" x2="3882.1" y2="161.6" stroke="white" stroke-width="0.5"/>
<line x1="3798.87" y1="41" x2="3798.87" y2="161.6" stroke="white" stroke-width="0.5"/>
<line x1="3861.29" y1="41" x2="3861.29" y2="161.6" stroke="white" stroke-width="0.5"/>
<line x1="3923.72" y1="41" x2="3923.72" y2="161.6" stroke="white" stroke-width="0.5"/>
<line x1="3778.06" y1="41" x2="3778.06" y2="161.6" stroke="white" stroke-width="0.5"/>
<line x1="3840.48" y1="41" x2="3840.48" y2="161.6" stroke="white" stroke-width="0.5"/>
<line x1="3902.91" y1="41" x2="3902.91" y2="161.6" stroke="white" stroke-width="0.5"/>
<path d="M3758.49 125.867L3765.17 119.167L3777.81 133.311L3798.62 112.467L3807.53 125.867L3819.42 95.3444L3840.23 64.0777L3859.55 100.556L3869.96 119.167L3882.59 78.9666L3901.91 64.0777L3922.72 52.1666" stroke="white"/>
</svg>
