<svg width="4027" height="201" viewBox="0 0 4027 201" fill="none" xmlns="http://www.w3.org/2000/svg">
<rect x="70" width="434" height="201" fill="#0A0909"/>
<rect x="70" width="434" height="201" fill="#0A0909"/>
<path d="M118.861 134.473H120.316V132.493C124.045 132.235 126.14 130.034 126.14 127.264C126.14 123.855 122.909 122.754 121.027 122.257L120.316 122.061V115.749C122.199 115.936 123.566 116.948 123.761 118.564H125.892C125.803 115.971 123.53 114 120.316 113.787V111.745H118.861V113.814C115.815 114.125 113.534 116.06 113.534 118.848C113.534 121.298 115.309 122.754 118.15 123.571L118.861 123.775V130.495C116.996 130.3 115.469 129.341 115.309 127.512H113.037C113.241 130.309 115.372 132.262 118.861 132.493V134.473ZM120.316 130.495V124.192L120.388 124.21C122.305 124.743 124.01 125.417 124.01 127.228C124.01 129.013 122.465 130.256 120.316 130.495ZM118.861 121.671C117.511 121.289 115.665 120.543 115.665 118.741C115.665 117.205 116.907 116.033 118.861 115.776V121.671ZM129.015 128.471H137.573V132.2H139.668V128.471H142.154V126.518H139.668V114.018H137.005L129.015 126.66V128.471ZM137.573 126.518H131.394V126.376L137.431 116.824H137.573V126.518ZM146.049 132.2H148.357L156.454 116.078V114.018H144.806V115.971H154.181V116.113L146.049 132.2ZM159.798 129.714H157.526L157.419 130.708C157.162 133.114 156.656 135.511 156.425 136.639H158.023C158.449 135.431 159.355 132.697 159.656 130.673L159.798 129.714ZM169.262 113.77C165.569 113.725 163.19 116.504 163.19 119.842C163.19 123.358 165.782 125.879 168.907 125.879C170.789 125.879 172.387 124.956 173.382 123.464H173.524C173.524 127.939 171.784 130.495 168.978 130.495C167.061 130.495 165.889 129.288 165.498 127.619H163.332C163.758 130.495 165.924 132.449 168.978 132.449C173.062 132.449 175.583 128.826 175.583 122.363C175.583 115.687 172.245 113.805 169.262 113.77ZM169.262 115.723C171.535 115.723 173.204 117.676 173.204 119.806C173.204 121.973 171.428 123.926 169.191 123.926C166.954 123.926 165.32 122.115 165.32 119.842C165.32 117.569 167.025 115.723 169.262 115.723ZM184.756 132.449C188.219 132.449 190.758 129.892 190.758 126.412C190.758 122.887 188.307 120.304 184.969 120.304C183.744 120.304 182.555 120.739 181.809 121.333H181.702L182.342 115.971H189.941V114.018H180.495L179.394 122.967L181.454 123.216C182.208 122.674 183.496 122.283 184.614 122.292C186.931 122.31 188.627 124.068 188.627 126.447C188.627 128.782 186.994 130.495 184.756 130.495C182.892 130.495 181.409 129.297 181.241 127.654H179.11C179.243 130.424 181.631 132.449 184.756 132.449ZM193.858 128.471H202.417V132.2H204.512V128.471H206.998V126.518H204.512V114.018H201.848L193.858 126.66V128.471ZM202.417 126.518H196.238V126.376L202.275 116.824H202.417V126.518ZM211.032 132.342C211.911 132.342 212.631 131.623 212.631 130.744C212.631 129.865 211.911 129.146 211.032 129.146C210.154 129.146 209.434 129.865 209.434 130.744C209.434 131.623 210.154 132.342 211.032 132.342ZM221.815 132.449C225.339 132.449 227.958 130.238 227.958 127.264C227.958 124.956 226.591 123.278 224.3 122.896V122.754C226.138 122.195 227.283 120.685 227.283 118.635C227.283 116.06 225.25 113.77 221.886 113.77C218.743 113.77 216.133 115.705 216.026 118.564H218.157C218.237 116.753 219.959 115.687 221.85 115.687C223.857 115.687 225.153 116.903 225.153 118.741C225.153 120.659 223.652 121.902 221.495 121.902H220.039V123.855H221.495C224.256 123.855 225.792 125.257 225.792 127.264C225.792 129.19 224.114 130.495 221.779 130.495C219.675 130.495 218.006 129.412 217.873 127.654H215.636C215.769 130.513 218.29 132.449 221.815 132.449ZM237.981 114.018H235.779L231.234 117.037V119.274L235.673 116.326H235.779V132.2H237.981V114.018Z" fill="white"/>
<path d="M222.171 71.0164L209.378 83.8313L207.276 81.726L220.067 68.9111H208.794V65.9333H225.143V82.3111H222.171V71.0164Z" fill="#26AE60"/>
<path d="M114.202 82.1555H120.771C125.068 82.1555 126.844 80.0603 126.844 77.326C126.844 74.4496 124.855 72.8871 123.186 72.7805V72.603C124.749 72.1768 126.134 71.147 126.134 68.8032C126.134 66.1399 124.358 63.9737 120.558 63.9737H114.202V82.1555ZM116.403 80.2024V73.8814H120.878C123.257 73.8814 124.749 75.4794 124.749 77.326C124.749 78.924 123.648 80.2024 120.771 80.2024H116.403ZM116.403 71.9638V65.9268H120.558C122.973 65.9268 124.038 67.2052 124.038 68.8032C124.038 70.7209 122.476 71.9638 120.487 71.9638H116.403ZM130.177 82.1555H132.273V68.5192H130.177V82.1555ZM131.243 66.2464C132.059 66.2464 132.734 65.6072 132.734 64.826C132.734 64.0447 132.059 63.4055 131.243 63.4055C130.426 63.4055 129.751 64.0447 129.751 64.826C129.751 65.6072 130.426 66.2464 131.243 66.2464ZM142.04 68.5192H139.128V65.2521H137.033V68.5192H134.974V70.2947H137.033V78.8174C137.033 81.1967 138.951 82.3331 140.726 82.3331C141.508 82.3331 142.005 82.191 142.289 82.0845L141.863 80.2024C141.685 80.2379 141.401 80.3089 140.94 80.3089C140.016 80.3089 139.128 80.0248 139.128 78.2493V70.2947H142.04V68.5192ZM150.585 82.4396C153.604 82.4396 155.592 80.593 155.948 78.1782H153.852C153.462 79.6697 152.219 80.5575 150.585 80.5575C148.1 80.5575 146.502 78.4978 146.502 75.3373C146.502 72.2478 148.135 70.2237 150.585 70.2237C152.432 70.2237 153.533 71.3601 153.852 72.603H155.948C155.592 70.0461 153.426 68.3416 150.55 68.3416C146.857 68.3416 144.406 71.2535 144.406 75.4084C144.406 79.4922 146.75 82.4396 150.585 82.4396ZM164.55 82.4396C168.243 82.4396 170.729 79.6342 170.729 75.4084C170.729 71.147 168.243 68.3416 164.55 68.3416C160.857 68.3416 158.371 71.147 158.371 75.4084C158.371 79.6342 160.857 82.4396 164.55 82.4396ZM164.55 80.5575C161.745 80.5575 160.466 78.1427 160.466 75.4084C160.466 72.674 161.745 70.2237 164.55 70.2237C167.356 70.2237 168.634 72.674 168.634 75.4084C168.634 78.1427 167.356 80.5575 164.55 80.5575ZM173.927 82.1555H176.023V68.5192H173.927V82.1555ZM174.993 66.2464C175.809 66.2464 176.484 65.6072 176.484 64.826C176.484 64.0447 175.809 63.4055 174.993 63.4055C174.176 63.4055 173.501 64.0447 173.501 64.826C173.501 65.6072 174.176 66.2464 174.993 66.2464ZM181.955 73.9524C181.955 71.5731 183.429 70.2237 185.435 70.2237C187.38 70.2237 188.56 71.4932 188.56 73.6328V82.1555H190.655V73.4907C190.655 70.0106 188.8 68.3416 186.039 68.3416C183.979 68.3416 182.701 69.2649 182.062 70.6498H181.884V68.5192H179.86V82.1555H181.955V73.9524Z" fill="white"/>
<line x1="304.25" y1="41" x2="304.25" y2="161.6" stroke="white" stroke-width="0.5"/>
<line x1="366.675" y1="41" x2="366.675" y2="161.6" stroke="white" stroke-width="0.5"/>
<line x1="429.099" y1="41" x2="429.099" y2="161.6" stroke="white" stroke-width="0.5"/>
<line x1="345.866" y1="41" x2="345.866" y2="161.6" stroke="white" stroke-width="0.5"/>
<line x1="408.291" y1="41" x2="408.291" y2="161.6" stroke="white" stroke-width="0.5"/>
<line x1="470.716" y1="41" x2="470.716" y2="161.6" stroke="white" stroke-width="0.5"/>
<line x1="325.058" y1="41" x2="325.058" y2="161.6" stroke="white" stroke-width="0.5"/>
<line x1="387.483" y1="41" x2="387.483" y2="161.6" stroke="white" stroke-width="0.5"/>
<line x1="449.908" y1="41" x2="449.908" y2="161.6" stroke="white" stroke-width="0.5"/>
<path d="M305.486 125.867L312.175 119.167L324.808 133.311L345.616 112.467L354.534 125.867L366.425 95.3444L387.233 64.0777L406.555 100.556L416.959 119.167L429.592 78.9666L448.914 64.0777L469.723 52.1666" stroke="white"/>
<rect x="564" width="434" height="201" fill="#0A0909"/>
<rect x="564" width="434" height="201" fill="#0A0909"/>
<path d="M612.861 134.473H614.316V132.493C618.045 132.235 620.14 130.034 620.14 127.264C620.14 123.855 616.909 122.754 615.027 122.257L614.316 122.061V115.749C616.199 115.936 617.566 116.948 617.761 118.564H619.892C619.803 115.971 617.53 114 614.316 113.787V111.745H612.861V113.814C609.815 114.125 607.534 116.06 607.534 118.848C607.534 121.298 609.309 122.754 612.15 123.571L612.861 123.775V130.495C610.996 130.3 609.469 129.341 609.309 127.512H607.037C607.241 130.309 609.372 132.262 612.861 132.493V134.473ZM614.316 130.495V124.192L614.388 124.21C616.305 124.743 618.01 125.417 618.01 127.228C618.01 129.013 616.465 130.256 614.316 130.495ZM612.861 121.671C611.511 121.289 609.665 120.543 609.665 118.741C609.665 117.205 610.907 116.033 612.861 115.776V121.671ZM629.584 132.449C633.109 132.449 635.728 130.238 635.728 127.264C635.728 124.956 634.36 123.278 632.07 122.896V122.754C633.908 122.195 635.053 120.685 635.053 118.635C635.053 116.06 633.02 113.77 629.655 113.77C626.512 113.77 623.902 115.705 623.796 118.564H625.926C626.006 116.753 627.729 115.687 629.62 115.687C631.626 115.687 632.922 116.903 632.922 118.741C632.922 120.659 631.422 121.902 629.265 121.902H627.809V123.855H629.265C632.026 123.855 633.561 125.257 633.561 127.264C633.561 129.19 631.884 130.495 629.549 130.495C627.445 130.495 625.776 129.412 625.642 127.654H623.405C623.538 130.513 626.06 132.449 629.584 132.449ZM641.958 129.714H639.685L639.578 130.708C639.321 133.114 638.815 135.511 638.584 136.639H640.182C640.608 135.431 641.514 132.697 641.816 130.673L641.958 129.714ZM650.023 114.018H647.821L643.276 117.037V119.274L647.715 116.326H647.821V132.2H650.023V114.018ZM655.252 132.2H666.722V130.247H658.271V130.105L662.354 125.737C665.479 122.39 666.403 120.827 666.403 118.812C666.403 116.007 664.13 113.77 660.934 113.77C657.747 113.77 655.323 115.936 655.323 119.132H657.418C657.418 117.063 658.759 115.687 660.863 115.687C662.834 115.687 664.343 116.895 664.343 118.812C664.343 120.49 663.358 121.733 661.254 124.032L655.252 130.602V132.2ZM676.319 132.449C680.332 132.449 682.64 129.048 682.64 123.109C682.64 117.214 680.297 113.77 676.319 113.77C672.342 113.77 669.998 117.214 669.998 123.109C669.998 129.048 672.307 132.449 676.319 132.449ZM676.319 130.495C673.674 130.495 672.129 127.841 672.129 123.109C672.129 118.386 673.691 115.687 676.319 115.687C678.947 115.687 680.51 118.386 680.51 123.109C680.51 127.841 678.965 130.495 676.319 130.495ZM686.942 132.342C687.821 132.342 688.54 131.623 688.54 130.744C688.54 129.865 687.821 129.146 686.942 129.146C686.063 129.146 685.344 129.865 685.344 130.744C685.344 131.623 686.063 132.342 686.942 132.342ZM697.56 132.449C701.572 132.449 703.881 129.048 703.881 123.109C703.881 117.214 701.537 113.77 697.56 113.77C693.582 113.77 691.239 117.214 691.239 123.109C691.239 129.048 693.547 132.449 697.56 132.449ZM697.56 130.495C694.914 130.495 693.369 127.841 693.369 123.109C693.369 118.386 694.932 115.687 697.56 115.687C700.187 115.687 701.75 118.386 701.75 123.109C701.75 127.841 700.205 130.495 697.56 130.495ZM713.291 132.449C716.967 132.493 719.364 129.723 719.364 126.341C719.364 122.825 716.762 120.304 713.646 120.304C711.773 120.304 710.166 121.218 709.172 122.718H709.03C709.039 118.288 710.761 115.723 713.575 115.723C715.493 115.723 716.647 116.93 717.055 118.564H719.222C718.778 115.74 716.629 113.77 713.575 113.77C709.483 113.77 706.97 117.392 706.97 123.819C706.97 130.54 710.308 132.413 713.291 132.449ZM713.291 130.495C711.009 130.495 709.34 128.551 709.349 126.376C709.358 124.201 711.107 122.257 713.362 122.257C715.59 122.257 717.233 124.086 717.233 126.341C717.233 128.649 715.519 130.495 713.291 130.495Z" fill="white"/>
<path d="M744.787 71.0164L731.994 83.8313L729.893 81.726L742.684 68.9111H731.41V65.9333H747.759V82.3111H744.787V71.0164Z" fill="#26AE60"/>
<path d="M608.202 82.1555H619.317V80.2024H610.403V74.0234H618.607V72.0703H610.403V65.9268H619.175V63.9737H608.202V82.1555ZM628.789 68.5192H625.877V65.2521H623.782V68.5192H621.723V70.2947H623.782V78.8174C623.782 81.1967 625.7 82.3331 627.475 82.3331C628.257 82.3331 628.754 82.191 629.038 82.0845L628.612 80.2024C628.434 80.2379 628.15 80.3089 627.689 80.3089C626.765 80.3089 625.877 80.0248 625.877 78.2493V70.2947H628.789V68.5192ZM634.329 73.9524C634.329 71.5731 635.847 70.2237 637.916 70.2237C639.887 70.2237 641.076 71.4666 641.076 73.6328V82.1555H643.172V73.4907C643.172 69.984 641.307 68.3416 638.52 68.3416C636.371 68.3416 635.146 69.2383 634.507 70.6498H634.329V63.9737H632.234V82.1555H634.329V73.9524ZM652.722 82.4396C655.492 82.4396 657.516 81.0547 658.155 78.995L656.131 78.4268C655.598 79.8473 654.364 80.5575 652.722 80.5575C650.263 80.5575 648.567 78.9684 648.469 76.0476H658.368V75.1598C658.368 70.0817 655.35 68.3416 652.509 68.3416C648.816 68.3416 646.365 71.2535 646.365 75.4439C646.365 79.6342 648.78 82.4396 652.722 82.4396ZM648.469 74.2365C648.611 72.1147 650.112 70.2237 652.509 70.2237C654.782 70.2237 656.237 71.9282 656.237 74.2365H648.469ZM661.555 82.1555H663.65V73.5263C663.65 71.6797 665.106 70.3302 667.095 70.3302C667.654 70.3302 668.231 70.4368 668.373 70.4723V68.3416C668.134 68.3238 667.583 68.3061 667.273 68.3061C665.639 68.3061 664.219 69.2294 663.722 70.5788H663.579V68.5192H661.555V82.1555ZM676.159 82.4396C678.929 82.4396 680.953 81.0547 681.593 78.995L679.568 78.4268C679.036 79.8473 677.802 80.5575 676.159 80.5575C673.7 80.5575 672.005 78.9684 671.907 76.0476H681.806V75.1598C681.806 70.0817 678.787 68.3416 675.946 68.3416C672.253 68.3416 669.803 71.2535 669.803 75.4439C669.803 79.6342 672.218 82.4396 676.159 82.4396ZM671.907 74.2365C672.049 72.1147 673.549 70.2237 675.946 70.2237C678.219 70.2237 679.675 71.9282 679.675 74.2365H671.907ZM693.587 76.5802C693.587 79.1371 691.633 80.3089 690.071 80.3089C688.331 80.3089 687.088 79.0305 687.088 77.0419V68.5192H684.993V77.1839C684.993 80.664 686.839 82.3331 689.396 82.3331C691.456 82.3331 692.805 81.2322 693.445 79.8473H693.587V82.1555H695.682V68.5192H693.587V76.5802ZM699.519 82.1555H701.614V73.6328C701.614 71.6353 703.07 70.2237 704.704 70.2237C706.293 70.2237 707.403 71.2624 707.403 72.816V82.1555H709.533V73.2777C709.533 71.5199 710.634 70.2237 712.552 70.2237C714.043 70.2237 715.322 71.0138 715.322 73.0291V82.1555H717.417V73.0291C717.417 69.8242 715.695 68.3416 713.262 68.3416C711.309 68.3416 709.88 69.2383 709.178 70.6498H709.036C708.362 69.1939 707.172 68.3416 705.379 68.3416C703.603 68.3416 702.289 69.1939 701.721 70.6498H701.543V68.5192H699.519V82.1555Z" fill="white"/>
<line x1="798.25" y1="41" x2="798.25" y2="161.6" stroke="white" stroke-width="0.5"/>
<line x1="860.675" y1="41" x2="860.675" y2="161.6" stroke="white" stroke-width="0.5"/>
<line x1="923.099" y1="41" x2="923.099" y2="161.6" stroke="white" stroke-width="0.5"/>
<line x1="839.866" y1="41" x2="839.866" y2="161.6" stroke="white" stroke-width="0.5"/>
<line x1="902.291" y1="41" x2="902.291" y2="161.6" stroke="white" stroke-width="0.5"/>
<line x1="964.716" y1="41" x2="964.716" y2="161.6" stroke="white" stroke-width="0.5"/>
<line x1="819.058" y1="41" x2="819.058" y2="161.6" stroke="white" stroke-width="0.5"/>
<line x1="881.483" y1="41" x2="881.483" y2="161.6" stroke="white" stroke-width="0.5"/>
<line x1="943.908" y1="41" x2="943.908" y2="161.6" stroke="white" stroke-width="0.5"/>
<path d="M799.486 125.867L806.175 119.167L818.808 133.311L839.616 112.467L848.534 125.867L860.425 95.3444L881.233 64.0777L900.555 100.556L910.959 119.167L923.592 78.9666L942.914 64.0777L963.723 52.1666" stroke="white"/>
<rect x="1071" width="434" height="201" fill="#0A0909"/>
<rect x="1071" width="434" height="201" fill="#0A0909"/>
<path d="M1119.86 134.473H1121.32V132.493C1125.05 132.235 1127.14 130.034 1127.14 127.264C1127.14 123.855 1123.91 122.754 1122.03 122.257L1121.32 122.061V115.749C1123.2 115.936 1124.57 116.948 1124.76 118.564H1126.89C1126.8 115.971 1124.53 114 1121.32 113.787V111.745H1119.86V113.814C1116.82 114.125 1114.53 116.06 1114.53 118.848C1114.53 121.298 1116.31 122.754 1119.15 123.571L1119.86 123.775V130.495C1118 130.3 1116.47 129.341 1116.31 127.512H1114.04C1114.24 130.309 1116.37 132.262 1119.86 132.493V134.473ZM1121.32 130.495V124.192L1121.39 124.21C1123.31 124.743 1125.01 125.417 1125.01 127.228C1125.01 129.013 1123.46 130.256 1121.32 130.495ZM1119.86 121.671C1118.51 121.289 1116.66 120.543 1116.66 118.741C1116.66 117.205 1117.91 116.033 1119.86 115.776V121.671ZM1130.01 128.471H1138.57V132.2H1140.67V128.471H1143.15V126.518H1140.67V114.018H1138L1130.01 126.66V128.471ZM1138.57 126.518H1132.39V126.376L1138.43 116.824H1138.57V126.518ZM1147.05 132.2H1149.36L1157.45 116.078V114.018H1145.81V115.971H1155.18V116.113L1147.05 132.2ZM1166.41 132.449C1170.08 132.493 1172.48 129.723 1172.48 126.341C1172.48 122.825 1169.88 120.304 1166.76 120.304C1164.89 120.304 1163.28 121.218 1162.29 122.718H1162.15C1162.16 118.288 1163.88 115.723 1166.69 115.723C1168.61 115.723 1169.77 116.93 1170.17 118.564H1172.34C1171.9 115.74 1169.75 113.77 1166.69 113.77C1162.6 113.77 1160.09 117.392 1160.09 123.819C1160.09 130.54 1163.43 132.413 1166.41 132.449ZM1166.41 130.495C1164.13 130.495 1162.46 128.551 1162.47 126.376C1162.48 124.201 1164.23 122.257 1166.48 122.257C1168.71 122.257 1170.35 124.086 1170.35 126.341C1170.35 128.649 1168.64 130.495 1166.41 130.495ZM1176.68 132.342C1177.56 132.342 1178.28 131.623 1178.28 130.744C1178.28 129.865 1177.56 129.146 1176.68 129.146C1175.8 129.146 1175.08 129.865 1175.08 130.744C1175.08 131.623 1175.8 132.342 1176.68 132.342ZM1186.22 114.018H1184.02L1179.48 117.037V119.274L1183.91 116.326H1184.02V132.2H1186.22V114.018ZM1197.13 132.449C1200.6 132.449 1203.13 129.892 1203.13 126.412C1203.13 122.887 1200.68 120.304 1197.35 120.304C1196.12 120.304 1194.93 120.739 1194.19 121.333H1194.08L1194.72 115.971H1202.32V114.018H1192.87L1191.77 122.967L1193.83 123.216C1194.59 122.674 1195.87 122.283 1196.99 122.292C1199.31 122.31 1201 124.068 1201 126.447C1201 128.782 1199.37 130.495 1197.13 130.495C1195.27 130.495 1193.79 129.297 1193.62 127.654H1191.49C1191.62 130.424 1194.01 132.449 1197.13 132.449Z" fill="white"/>
<path d="M1235.79 71.0164L1222.99 83.8313L1220.89 81.726L1233.68 68.9111H1222.41V65.9333H1238.76V82.3111H1235.79V71.0164Z" fill="#26AE60"/>
<path d="M1115.2 82.1555H1121.77C1126.07 82.1555 1127.84 80.0603 1127.84 77.326C1127.84 74.4496 1125.86 72.8871 1124.19 72.7805V72.603C1125.75 72.1768 1127.13 71.147 1127.13 68.8032C1127.13 66.1399 1125.36 63.9737 1121.56 63.9737H1115.2V82.1555ZM1117.4 80.2024V73.8814H1121.88C1124.26 73.8814 1125.75 75.4794 1125.75 77.326C1125.75 78.924 1124.65 80.2024 1121.77 80.2024H1117.4ZM1117.4 71.9638V65.9268H1121.56C1123.97 65.9268 1125.04 67.2052 1125.04 68.8032C1125.04 70.7209 1123.48 71.9638 1121.49 71.9638H1117.4ZM1131.18 82.1555H1133.27V68.5192H1131.18V82.1555ZM1132.24 66.2464C1133.06 66.2464 1133.73 65.6072 1133.73 64.826C1133.73 64.0447 1133.06 63.4055 1132.24 63.4055C1131.43 63.4055 1130.75 64.0447 1130.75 64.826C1130.75 65.6072 1131.43 66.2464 1132.24 66.2464ZM1139.21 73.9524C1139.21 71.5731 1140.68 70.2237 1142.69 70.2237C1144.63 70.2237 1145.81 71.4932 1145.81 73.6328V82.1555H1147.91V73.4907C1147.91 70.0106 1146.05 68.3416 1143.29 68.3416C1141.23 68.3416 1139.95 69.2649 1139.31 70.6498H1139.13V68.5192H1137.11V82.1555H1139.21V73.9524ZM1155.75 82.4751C1158.13 82.4751 1159.37 81.1967 1159.8 80.3089H1159.9V82.1555H1162V73.1711C1162 68.8388 1158.69 68.3416 1156.95 68.3416C1154.89 68.3416 1152.55 69.0518 1151.49 71.5376L1153.47 72.2478C1153.94 71.2535 1155.03 70.1882 1157.03 70.1882C1158.95 70.1882 1159.9 71.2091 1159.9 72.9581V73.0291C1159.9 74.0412 1158.87 73.9524 1156.39 74.272C1153.86 74.6005 1151.09 75.1598 1151.09 78.2848C1151.09 80.9481 1153.15 82.4751 1155.75 82.4751ZM1156.07 80.593C1154.4 80.593 1153.19 79.8473 1153.19 78.3913C1153.19 76.7933 1154.65 76.2961 1156.28 76.0831C1157.17 75.9765 1159.55 75.728 1159.9 75.3018V77.2194C1159.9 78.924 1158.55 80.593 1156.07 80.593ZM1167.92 73.9524C1167.92 71.5731 1169.39 70.2237 1171.4 70.2237C1173.34 70.2237 1174.52 71.4932 1174.52 73.6328V82.1555H1176.62V73.4907C1176.62 70.0106 1174.76 68.3416 1172 68.3416C1169.94 68.3416 1168.66 69.2649 1168.02 70.6498H1167.85V68.5192H1165.82V82.1555H1167.92V73.9524ZM1185.98 82.4396C1189 82.4396 1190.99 80.593 1191.35 78.1782H1189.25C1188.86 79.6697 1187.62 80.5575 1185.98 80.5575C1183.5 80.5575 1181.9 78.4978 1181.9 75.3373C1181.9 72.2478 1183.53 70.2237 1185.98 70.2237C1187.83 70.2237 1188.93 71.3601 1189.25 72.603H1191.35C1190.99 70.0461 1188.83 68.3416 1185.95 68.3416C1182.26 68.3416 1179.81 71.2535 1179.81 75.4084C1179.81 79.4922 1182.15 82.4396 1185.98 82.4396ZM1200.13 82.4396C1202.9 82.4396 1204.92 81.0547 1205.56 78.995L1203.54 78.4268C1203 79.8473 1201.77 80.5575 1200.13 80.5575C1197.67 80.5575 1195.97 78.9684 1195.87 76.0476H1205.77V75.1598C1205.77 70.0817 1202.75 68.3416 1199.91 68.3416C1196.22 68.3416 1193.77 71.2535 1193.77 75.4439C1193.77 79.6342 1196.19 82.4396 1200.13 82.4396ZM1195.87 74.2365C1196.02 72.1147 1197.52 70.2237 1199.91 70.2237C1202.19 70.2237 1203.64 71.9282 1203.64 74.2365H1195.87Z" fill="white"/>
<line x1="1305.25" y1="41" x2="1305.25" y2="161.6" stroke="white" stroke-width="0.5"/>
<line x1="1367.67" y1="41" x2="1367.67" y2="161.6" stroke="white" stroke-width="0.5"/>
<line x1="1430.1" y1="41" x2="1430.1" y2="161.6" stroke="white" stroke-width="0.5"/>
<line x1="1346.87" y1="41" x2="1346.87" y2="161.6" stroke="white" stroke-width="0.5"/>
<line x1="1409.29" y1="41" x2="1409.29" y2="161.6" stroke="white" stroke-width="0.5"/>
<line x1="1471.72" y1="41" x2="1471.72" y2="161.6" stroke="white" stroke-width="0.5"/>
<line x1="1326.06" y1="41" x2="1326.06" y2="161.6" stroke="white" stroke-width="0.5"/>
<line x1="1388.48" y1="41" x2="1388.48" y2="161.6" stroke="white" stroke-width="0.5"/>
<line x1="1450.91" y1="41" x2="1450.91" y2="161.6" stroke="white" stroke-width="0.5"/>
<path d="M1306.49 125.867L1313.17 119.167L1325.81 133.311L1346.62 112.467L1355.53 125.867L1367.42 95.3444L1388.23 64.0777L1407.55 100.556L1417.96 119.167L1430.59 78.9666L1449.91 64.0777L1470.72 52.1666" stroke="white"/>
<rect x="1578" width="434" height="201" fill="#0A0909"/>
<rect x="1578" width="434" height="201" fill="#0A0909"/>
<path d="M1626.86 134.473H1628.32V132.493C1632.05 132.235 1634.14 130.034 1634.14 127.264C1634.14 123.855 1630.91 122.754 1629.03 122.257L1628.32 122.061V115.749C1630.2 115.936 1631.57 116.948 1631.76 118.564H1633.89C1633.8 115.971 1631.53 114 1628.32 113.787V111.745H1626.86V113.814C1623.82 114.125 1621.53 116.06 1621.53 118.848C1621.53 121.298 1623.31 122.754 1626.15 123.571L1626.86 123.775V130.495C1625 130.3 1623.47 129.341 1623.31 127.512H1621.04C1621.24 130.309 1623.37 132.262 1626.86 132.493V134.473ZM1628.32 130.495V124.192L1628.39 124.21C1630.31 124.743 1632.01 125.417 1632.01 127.228C1632.01 129.013 1630.47 130.256 1628.32 130.495ZM1626.86 121.671C1625.51 121.289 1623.66 120.543 1623.66 118.741C1623.66 117.205 1624.91 116.033 1626.86 115.776V121.671ZM1643.37 132.449C1647.38 132.449 1649.69 129.048 1649.69 123.109C1649.69 117.214 1647.35 113.77 1643.37 113.77C1639.39 113.77 1637.05 117.214 1637.05 123.109C1637.05 129.048 1639.36 132.449 1643.37 132.449ZM1643.37 130.495C1640.73 130.495 1639.18 127.841 1639.18 123.109C1639.18 118.386 1640.74 115.687 1643.37 115.687C1646 115.687 1647.56 118.386 1647.56 123.109C1647.56 127.841 1646.02 130.495 1643.37 130.495ZM1653.99 132.342C1654.87 132.342 1655.59 131.623 1655.59 130.744C1655.59 129.865 1654.87 129.146 1653.99 129.146C1653.11 129.146 1652.4 129.865 1652.4 130.744C1652.4 131.623 1653.11 132.342 1653.99 132.342ZM1659.32 132.2H1670.79V130.247H1662.33V130.105L1666.42 125.737C1669.54 122.39 1670.47 120.827 1670.47 118.812C1670.47 116.007 1668.19 113.77 1665 113.77C1661.81 113.77 1659.39 115.936 1659.39 119.132H1661.48C1661.48 117.063 1662.82 115.687 1664.93 115.687C1666.9 115.687 1668.41 116.895 1668.41 118.812C1668.41 120.49 1667.42 121.733 1665.32 124.032L1659.32 130.602V132.2ZM1680.28 132.449C1683.91 132.449 1686.44 130.327 1686.46 127.37C1686.44 125.071 1684.9 123.118 1682.94 122.754V122.647C1684.64 122.204 1685.76 120.534 1685.78 118.599C1685.76 115.829 1683.44 113.77 1680.28 113.77C1677.08 113.77 1674.75 115.829 1674.77 118.599C1674.75 120.534 1675.87 122.204 1677.61 122.647V122.754C1675.62 123.118 1674.08 125.071 1674.1 127.37C1674.08 130.327 1676.61 132.449 1680.28 132.449ZM1680.28 130.495C1677.78 130.495 1676.25 129.217 1676.26 127.264C1676.25 125.213 1677.94 123.748 1680.28 123.748C1682.58 123.748 1684.27 125.213 1684.29 127.264C1684.27 129.217 1682.74 130.495 1680.28 130.495ZM1680.28 121.866C1678.29 121.866 1676.89 120.623 1676.9 118.741C1676.89 116.895 1678.23 115.687 1680.28 115.687C1682.28 115.687 1683.63 116.895 1683.65 118.741C1683.63 120.623 1682.23 121.866 1680.28 121.866ZM1689.43 128.471H1697.99V132.2H1700.09V128.471H1702.57V126.518H1700.09V114.018H1697.42L1689.43 126.66V128.471ZM1697.99 126.518H1691.81V126.376L1697.85 116.824H1697.99V126.518ZM1711.93 132.449C1715.61 132.493 1718.01 129.723 1718.01 126.341C1718.01 122.825 1715.41 120.304 1712.29 120.304C1710.42 120.304 1708.81 121.218 1707.82 122.718H1707.67C1707.68 118.288 1709.4 115.723 1712.22 115.723C1714.14 115.723 1715.29 116.93 1715.7 118.564H1717.87C1717.42 115.74 1715.27 113.77 1712.22 113.77C1708.13 113.77 1705.61 117.392 1705.61 123.819C1705.61 130.54 1708.95 132.413 1711.93 132.449ZM1711.93 130.495C1709.65 130.495 1707.98 128.551 1707.99 126.376C1708 124.201 1709.75 122.257 1712.01 122.257C1714.23 122.257 1715.88 124.086 1715.88 126.341C1715.88 128.649 1714.16 130.495 1711.93 130.495Z" fill="white"/>
<path d="M1757.79 71.0164L1744.99 83.8313L1742.89 81.726L1755.68 68.9111H1744.41V65.9333H1760.76V82.3111H1757.79V71.0164Z" fill="#26AE60"/>
<path d="M1627.81 82.1555C1633.35 82.1555 1636.48 78.7109 1636.48 73.0291C1636.48 67.3828 1633.35 63.9737 1628.06 63.9737H1622.2V82.1555H1627.81ZM1624.4 80.2024V65.9268H1627.92C1632.18 65.9268 1634.35 68.6257 1634.35 73.0291C1634.35 77.468 1632.18 80.2024 1627.67 80.2024H1624.4ZM1645.43 82.4396C1649.12 82.4396 1651.61 79.6342 1651.61 75.4084C1651.61 71.147 1649.12 68.3416 1645.43 68.3416C1641.73 68.3416 1639.25 71.147 1639.25 75.4084C1639.25 79.6342 1641.73 82.4396 1645.43 82.4396ZM1645.43 80.5575C1642.62 80.5575 1641.34 78.1427 1641.34 75.4084C1641.34 72.674 1642.62 70.2237 1645.43 70.2237C1648.23 70.2237 1649.51 72.674 1649.51 75.4084C1649.51 78.1427 1648.23 80.5575 1645.43 80.5575ZM1660.31 87.5532C1663.57 87.5532 1666.2 86.0618 1666.2 82.5461V68.5192H1664.18V70.6853H1663.97C1663.5 69.9751 1662.65 68.3416 1659.99 68.3416C1656.54 68.3416 1654.16 71.076 1654.16 75.2663C1654.16 79.5277 1656.65 81.9424 1659.95 81.9424C1662.62 81.9424 1663.47 80.3799 1663.93 79.6342H1664.11V82.4041C1664.11 84.6768 1662.51 85.7067 1660.31 85.7067C1657.83 85.7067 1656.96 84.4016 1656.4 83.647L1654.73 84.8189C1655.58 86.2482 1657.26 87.5532 1660.31 87.5532ZM1660.24 80.0603C1657.61 80.0603 1656.26 78.0717 1656.26 75.2308C1656.26 72.4609 1657.57 70.2237 1660.24 70.2237C1662.79 70.2237 1664.14 72.2834 1664.14 75.2308C1664.14 78.2493 1662.76 80.0603 1660.24 80.0603ZM1675.76 82.4396C1678.52 82.4396 1680.55 81.0547 1681.19 78.995L1679.16 78.4268C1678.63 79.8473 1677.4 80.5575 1675.76 80.5575C1673.3 80.5575 1671.6 78.9684 1671.5 76.0476H1681.4V75.1598C1681.4 70.0817 1678.38 68.3416 1675.54 68.3416C1671.85 68.3416 1669.4 71.2535 1669.4 75.4439C1669.4 79.6342 1671.81 82.4396 1675.76 82.4396ZM1671.5 74.2365C1671.64 72.1147 1673.14 70.2237 1675.54 70.2237C1677.81 70.2237 1679.27 71.9282 1679.27 74.2365H1671.5ZM1690.13 82.4396C1693.15 82.4396 1695.14 80.593 1695.49 78.1782H1693.4C1693 79.6697 1691.76 80.5575 1690.13 80.5575C1687.64 80.5575 1686.04 78.4978 1686.04 75.3373C1686.04 72.2478 1687.68 70.2237 1690.13 70.2237C1691.97 70.2237 1693.08 71.3601 1693.4 72.603H1695.49C1695.14 70.0461 1692.97 68.3416 1690.09 68.3416C1686.4 68.3416 1683.95 71.2535 1683.95 75.4084C1683.95 79.4922 1686.29 82.4396 1690.13 82.4396ZM1704.09 82.4396C1707.79 82.4396 1710.27 79.6342 1710.27 75.4084C1710.27 71.147 1707.79 68.3416 1704.09 68.3416C1700.4 68.3416 1697.91 71.147 1697.91 75.4084C1697.91 79.6342 1700.4 82.4396 1704.09 82.4396ZM1704.09 80.5575C1701.29 80.5575 1700.01 78.1427 1700.01 75.4084C1700.01 72.674 1701.29 70.2237 1704.09 70.2237C1706.9 70.2237 1708.18 72.674 1708.18 75.4084C1708.18 78.1427 1706.9 80.5575 1704.09 80.5575ZM1713.47 82.1555H1715.57V68.5192H1713.47V82.1555ZM1714.54 66.2464C1715.35 66.2464 1716.03 65.6072 1716.03 64.826C1716.03 64.0447 1715.35 63.4055 1714.54 63.4055C1713.72 63.4055 1713.04 64.0447 1713.04 64.826C1713.04 65.6072 1713.72 66.2464 1714.54 66.2464ZM1721.5 73.9524C1721.5 71.5731 1722.97 70.2237 1724.98 70.2237C1726.92 70.2237 1728.1 71.4932 1728.1 73.6328V82.1555H1730.2V73.4907C1730.2 70.0106 1728.34 68.3416 1725.58 68.3416C1723.52 68.3416 1722.24 69.2649 1721.6 70.6498H1721.43V68.5192H1719.4V82.1555H1721.5V73.9524Z" fill="white"/>
<line x1="1812.25" y1="41" x2="1812.25" y2="161.6" stroke="white" stroke-width="0.5"/>
<line x1="1874.67" y1="41" x2="1874.67" y2="161.6" stroke="white" stroke-width="0.5"/>
<line x1="1937.1" y1="41" x2="1937.1" y2="161.6" stroke="white" stroke-width="0.5"/>
<line x1="1853.87" y1="41" x2="1853.87" y2="161.6" stroke="white" stroke-width="0.5"/>
<line x1="1916.29" y1="41" x2="1916.29" y2="161.6" stroke="white" stroke-width="0.5"/>
<line x1="1978.72" y1="41" x2="1978.72" y2="161.6" stroke="white" stroke-width="0.5"/>
<line x1="1833.06" y1="41" x2="1833.06" y2="161.6" stroke="white" stroke-width="0.5"/>
<line x1="1895.48" y1="41" x2="1895.48" y2="161.6" stroke="white" stroke-width="0.5"/>
<line x1="1957.91" y1="41" x2="1957.91" y2="161.6" stroke="white" stroke-width="0.5"/>
<path d="M1813.49 125.867L1820.17 119.167L1832.81 133.311L1853.62 112.467L1862.53 125.867L1874.42 95.3444L1895.23 64.0777L1914.55 100.556L1924.96 119.167L1937.59 78.9666L1956.91 64.0777L1977.72 52.1666" stroke="white"/>
<rect x="2078" width="434" height="201" fill="#0A0909"/>
<rect x="2078" width="434" height="201" fill="#0A0909"/>
<path d="M2126.86 134.473H2128.32V132.493C2132.05 132.235 2134.14 130.034 2134.14 127.264C2134.14 123.855 2130.91 122.754 2129.03 122.257L2128.32 122.061V115.749C2130.2 115.936 2131.57 116.948 2131.76 118.564H2133.89C2133.8 115.971 2131.53 114 2128.32 113.787V111.745H2126.86V113.814C2123.82 114.125 2121.53 116.06 2121.53 118.848C2121.53 121.298 2123.31 122.754 2126.15 123.571L2126.86 123.775V130.495C2125 130.3 2123.47 129.341 2123.31 127.512H2121.04C2121.24 130.309 2123.37 132.262 2126.86 132.493V134.473ZM2128.32 130.495V124.192L2128.39 124.21C2130.31 124.743 2132.01 125.417 2132.01 127.228C2132.01 129.013 2130.47 130.256 2128.32 130.495ZM2126.86 121.671C2125.51 121.289 2123.66 120.543 2123.66 118.741C2123.66 117.205 2124.91 116.033 2126.86 115.776V121.671ZM2137.01 128.471H2145.57V132.2H2147.67V128.471H2150.15V126.518H2147.67V114.018H2145L2137.01 126.66V128.471ZM2145.57 126.518H2139.39V126.376L2145.43 116.824H2145.57V126.518ZM2154.05 132.2H2156.36L2164.45 116.078V114.018H2152.81V115.971H2162.18V116.113L2154.05 132.2ZM2167.8 129.714H2165.53L2165.42 130.708C2165.16 133.114 2164.66 135.511 2164.43 136.639H2166.02C2166.45 135.431 2167.35 132.697 2167.66 130.673L2167.8 129.714ZM2177.26 113.77C2173.57 113.725 2171.19 116.504 2171.19 119.842C2171.19 123.358 2173.78 125.879 2176.91 125.879C2178.79 125.879 2180.39 124.956 2181.38 123.464H2181.52C2181.52 127.939 2179.78 130.495 2176.98 130.495C2175.06 130.495 2173.89 129.288 2173.5 127.619H2171.33C2171.76 130.495 2173.92 132.449 2176.98 132.449C2181.06 132.449 2183.58 128.826 2183.58 122.363C2183.58 115.687 2180.25 113.805 2177.26 113.77ZM2177.26 115.723C2179.54 115.723 2181.2 117.676 2181.2 119.806C2181.2 121.973 2179.43 123.926 2177.19 123.926C2174.95 123.926 2173.32 122.115 2173.32 119.842C2173.32 117.569 2175.03 115.723 2177.26 115.723ZM2192.76 132.449C2196.22 132.449 2198.76 129.892 2198.76 126.412C2198.76 122.887 2196.31 120.304 2192.97 120.304C2191.74 120.304 2190.55 120.739 2189.81 121.333H2189.7L2190.34 115.971H2197.94V114.018H2188.5L2187.39 122.967L2189.45 123.216C2190.21 122.674 2191.5 122.283 2192.61 122.292C2194.93 122.31 2196.63 124.068 2196.63 126.447C2196.63 128.782 2194.99 130.495 2192.76 130.495C2190.89 130.495 2189.41 129.297 2189.24 127.654H2187.11C2187.24 130.424 2189.63 132.449 2192.76 132.449ZM2201.86 128.471H2210.42V132.2H2212.51V128.471H2215V126.518H2212.51V114.018H2209.85L2201.86 126.66V128.471ZM2210.42 126.518H2204.24V126.376L2210.27 116.824H2210.42V126.518ZM2219.03 132.342C2219.91 132.342 2220.63 131.623 2220.63 130.744C2220.63 129.865 2219.91 129.146 2219.03 129.146C2218.15 129.146 2217.43 129.865 2217.43 130.744C2217.43 131.623 2218.15 132.342 2219.03 132.342ZM2229.81 132.449C2233.34 132.449 2235.96 130.238 2235.96 127.264C2235.96 124.956 2234.59 123.278 2232.3 122.896V122.754C2234.14 122.195 2235.28 120.685 2235.28 118.635C2235.28 116.06 2233.25 113.77 2229.89 113.77C2226.74 113.77 2224.13 115.705 2224.03 118.564H2226.16C2226.24 116.753 2227.96 115.687 2229.85 115.687C2231.86 115.687 2233.15 116.903 2233.15 118.741C2233.15 120.659 2231.65 121.902 2229.5 121.902H2228.04V123.855H2229.5C2232.26 123.855 2233.79 125.257 2233.79 127.264C2233.79 129.19 2232.11 130.495 2229.78 130.495C2227.68 130.495 2226.01 129.412 2225.87 127.654H2223.64C2223.77 130.513 2226.29 132.449 2229.81 132.449ZM2245.98 114.018H2243.78L2239.23 117.037V119.274L2243.67 116.326H2243.78V132.2H2245.98V114.018Z" fill="white"/>
<path d="M2230.17 71.0164L2217.38 83.8313L2215.28 81.726L2228.07 68.9111H2216.79V65.9333H2233.14V82.3111H2230.17V71.0164Z" fill="#26AE60"/>
<path d="M2122.2 82.1555H2128.77C2133.07 82.1555 2134.84 80.0603 2134.84 77.326C2134.84 74.4496 2132.86 72.8871 2131.19 72.7805V72.603C2132.75 72.1768 2134.13 71.147 2134.13 68.8032C2134.13 66.1399 2132.36 63.9737 2128.56 63.9737H2122.2V82.1555ZM2124.4 80.2024V73.8814H2128.88C2131.26 73.8814 2132.75 75.4794 2132.75 77.326C2132.75 78.924 2131.65 80.2024 2128.77 80.2024H2124.4ZM2124.4 71.9638V65.9268H2128.56C2130.97 65.9268 2132.04 67.2052 2132.04 68.8032C2132.04 70.7209 2130.48 71.9638 2128.49 71.9638H2124.4ZM2138.18 82.1555H2140.27V68.5192H2138.18V82.1555ZM2139.24 66.2464C2140.06 66.2464 2140.73 65.6072 2140.73 64.826C2140.73 64.0447 2140.06 63.4055 2139.24 63.4055C2138.43 63.4055 2137.75 64.0447 2137.75 64.826C2137.75 65.6072 2138.43 66.2464 2139.24 66.2464ZM2150.04 68.5192H2147.13V65.2521H2145.03V68.5192H2142.97V70.2947H2145.03V78.8174C2145.03 81.1967 2146.95 82.3331 2148.73 82.3331C2149.51 82.3331 2150 82.191 2150.29 82.0845L2149.86 80.2024C2149.69 80.2379 2149.4 80.3089 2148.94 80.3089C2148.02 80.3089 2147.13 80.0248 2147.13 78.2493V70.2947H2150.04V68.5192ZM2158.59 82.4396C2161.6 82.4396 2163.59 80.593 2163.95 78.1782H2161.85C2161.46 79.6697 2160.22 80.5575 2158.59 80.5575C2156.1 80.5575 2154.5 78.4978 2154.5 75.3373C2154.5 72.2478 2156.14 70.2237 2158.59 70.2237C2160.43 70.2237 2161.53 71.3601 2161.85 72.603H2163.95C2163.59 70.0461 2161.43 68.3416 2158.55 68.3416C2154.86 68.3416 2152.41 71.2535 2152.41 75.4084C2152.41 79.4922 2154.75 82.4396 2158.59 82.4396ZM2172.55 82.4396C2176.24 82.4396 2178.73 79.6342 2178.73 75.4084C2178.73 71.147 2176.24 68.3416 2172.55 68.3416C2168.86 68.3416 2166.37 71.147 2166.37 75.4084C2166.37 79.6342 2168.86 82.4396 2172.55 82.4396ZM2172.55 80.5575C2169.74 80.5575 2168.47 78.1427 2168.47 75.4084C2168.47 72.674 2169.74 70.2237 2172.55 70.2237C2175.36 70.2237 2176.63 72.674 2176.63 75.4084C2176.63 78.1427 2175.36 80.5575 2172.55 80.5575ZM2181.93 82.1555H2184.02V68.5192H2181.93V82.1555ZM2182.99 66.2464C2183.81 66.2464 2184.48 65.6072 2184.48 64.826C2184.48 64.0447 2183.81 63.4055 2182.99 63.4055C2182.18 63.4055 2181.5 64.0447 2181.5 64.826C2181.5 65.6072 2182.18 66.2464 2182.99 66.2464ZM2189.96 73.9524C2189.96 71.5731 2191.43 70.2237 2193.44 70.2237C2195.38 70.2237 2196.56 71.4932 2196.56 73.6328V82.1555H2198.66V73.4907C2198.66 70.0106 2196.8 68.3416 2194.04 68.3416C2191.98 68.3416 2190.7 69.2649 2190.06 70.6498H2189.88V68.5192H2187.86V82.1555H2189.96V73.9524Z" fill="white"/>
<line x1="2312.25" y1="41" x2="2312.25" y2="161.6" stroke="white" stroke-width="0.5"/>
<line x1="2374.67" y1="41" x2="2374.67" y2="161.6" stroke="white" stroke-width="0.5"/>
<line x1="2437.1" y1="41" x2="2437.1" y2="161.6" stroke="white" stroke-width="0.5"/>
<line x1="2353.87" y1="41" x2="2353.87" y2="161.6" stroke="white" stroke-width="0.5"/>
<line x1="2416.29" y1="41" x2="2416.29" y2="161.6" stroke="white" stroke-width="0.5"/>
<line x1="2478.72" y1="41" x2="2478.72" y2="161.6" stroke="white" stroke-width="0.5"/>
<line x1="2333.06" y1="41" x2="2333.06" y2="161.6" stroke="white" stroke-width="0.5"/>
<line x1="2395.48" y1="41" x2="2395.48" y2="161.6" stroke="white" stroke-width="0.5"/>
<line x1="2457.91" y1="41" x2="2457.91" y2="161.6" stroke="white" stroke-width="0.5"/>
<path d="M2313.49 125.867L2320.17 119.167L2332.81 133.311L2353.62 112.467L2362.53 125.867L2374.42 95.3444L2395.23 64.0777L2414.55 100.556L2424.96 119.167L2437.59 78.9666L2456.91 64.0777L2477.72 52.1666" stroke="white"/>
<rect x="2579" width="434" height="201" fill="#0A0909"/>
<rect x="2579" width="434" height="201" fill="#0A0909"/>
<path d="M2627.86 134.473H2629.32V132.493C2633.05 132.235 2635.14 130.034 2635.14 127.264C2635.14 123.855 2631.91 122.754 2630.03 122.257L2629.32 122.061V115.749C2631.2 115.936 2632.57 116.948 2632.76 118.564H2634.89C2634.8 115.971 2632.53 114 2629.32 113.787V111.745H2627.86V113.814C2624.82 114.125 2622.53 116.06 2622.53 118.848C2622.53 121.298 2624.31 122.754 2627.15 123.571L2627.86 123.775V130.495C2626 130.3 2624.47 129.341 2624.31 127.512H2622.04C2622.24 130.309 2624.37 132.262 2627.86 132.493V134.473ZM2629.32 130.495V124.192L2629.39 124.21C2631.31 124.743 2633.01 125.417 2633.01 127.228C2633.01 129.013 2631.47 130.256 2629.32 130.495ZM2627.86 121.671C2626.51 121.289 2624.66 120.543 2624.66 118.741C2624.66 117.205 2625.91 116.033 2627.86 115.776V121.671ZM2644.58 132.449C2648.11 132.449 2650.73 130.238 2650.73 127.264C2650.73 124.956 2649.36 123.278 2647.07 122.896V122.754C2648.91 122.195 2650.05 120.685 2650.05 118.635C2650.05 116.06 2648.02 113.77 2644.66 113.77C2641.51 113.77 2638.9 115.705 2638.8 118.564H2640.93C2641.01 116.753 2642.73 115.687 2644.62 115.687C2646.63 115.687 2647.92 116.903 2647.92 118.741C2647.92 120.659 2646.42 121.902 2644.26 121.902H2642.81V123.855H2644.26C2647.03 123.855 2648.56 125.257 2648.56 127.264C2648.56 129.19 2646.88 130.495 2644.55 130.495C2642.44 130.495 2640.78 129.412 2640.64 127.654H2638.41C2638.54 130.513 2641.06 132.449 2644.58 132.449ZM2656.96 129.714H2654.69L2654.58 130.708C2654.32 133.114 2653.82 135.511 2653.58 136.639H2655.18C2655.61 135.431 2656.51 132.697 2656.82 130.673L2656.96 129.714ZM2665.02 114.018H2662.82L2658.28 117.037V119.274L2662.72 116.326H2662.82V132.2H2665.02V114.018ZM2670.25 132.2H2681.72V130.247H2673.27V130.105L2677.35 125.737C2680.48 122.39 2681.4 120.827 2681.4 118.812C2681.4 116.007 2679.13 113.77 2675.93 113.77C2672.75 113.77 2670.32 115.936 2670.32 119.132H2672.42C2672.42 117.063 2673.76 115.687 2675.86 115.687C2677.83 115.687 2679.34 116.895 2679.34 118.812C2679.34 120.49 2678.36 121.733 2676.25 124.032L2670.25 130.602V132.2ZM2691.32 132.449C2695.33 132.449 2697.64 129.048 2697.64 123.109C2697.64 117.214 2695.3 113.77 2691.32 113.77C2687.34 113.77 2685 117.214 2685 123.109C2685 129.048 2687.31 132.449 2691.32 132.449ZM2691.32 130.495C2688.67 130.495 2687.13 127.841 2687.13 123.109C2687.13 118.386 2688.69 115.687 2691.32 115.687C2693.95 115.687 2695.51 118.386 2695.51 123.109C2695.51 127.841 2693.97 130.495 2691.32 130.495ZM2701.94 132.342C2702.82 132.342 2703.54 131.623 2703.54 130.744C2703.54 129.865 2702.82 129.146 2701.94 129.146C2701.06 129.146 2700.34 129.865 2700.34 130.744C2700.34 131.623 2701.06 132.342 2701.94 132.342ZM2712.56 132.449C2716.57 132.449 2718.88 129.048 2718.88 123.109C2718.88 117.214 2716.54 113.77 2712.56 113.77C2708.58 113.77 2706.24 117.214 2706.24 123.109C2706.24 129.048 2708.55 132.449 2712.56 132.449ZM2712.56 130.495C2709.91 130.495 2708.37 127.841 2708.37 123.109C2708.37 118.386 2709.93 115.687 2712.56 115.687C2715.19 115.687 2716.75 118.386 2716.75 123.109C2716.75 127.841 2715.21 130.495 2712.56 130.495ZM2728.29 132.449C2731.97 132.493 2734.36 129.723 2734.36 126.341C2734.36 122.825 2731.76 120.304 2728.65 120.304C2726.77 120.304 2725.17 121.218 2724.17 122.718H2724.03C2724.04 118.288 2725.76 115.723 2728.58 115.723C2730.49 115.723 2731.65 116.93 2732.06 118.564H2734.22C2733.78 115.74 2731.63 113.77 2728.58 113.77C2724.48 113.77 2721.97 117.392 2721.97 123.819C2721.97 130.54 2725.31 132.413 2728.29 132.449ZM2728.29 130.495C2726.01 130.495 2724.34 128.551 2724.35 126.376C2724.36 124.201 2726.11 122.257 2728.36 122.257C2730.59 122.257 2732.23 124.086 2732.23 126.341C2732.23 128.649 2730.52 130.495 2728.29 130.495Z" fill="white"/>
<path d="M2759.79 71.0164L2746.99 83.8313L2744.89 81.726L2757.68 68.9111H2746.41V65.9333H2762.76V82.3111H2759.79V71.0164Z" fill="#26AE60"/>
<path d="M2623.2 82.1555H2634.32V80.2024H2625.4V74.0234H2633.61V72.0703H2625.4V65.9268H2634.17V63.9737H2623.2V82.1555ZM2643.79 68.5192H2640.88V65.2521H2638.78V68.5192H2636.72V70.2947H2638.78V78.8174C2638.78 81.1967 2640.7 82.3331 2642.48 82.3331C2643.26 82.3331 2643.75 82.191 2644.04 82.0845L2643.61 80.2024C2643.43 80.2379 2643.15 80.3089 2642.69 80.3089C2641.77 80.3089 2640.88 80.0248 2640.88 78.2493V70.2947H2643.79V68.5192ZM2649.33 73.9524C2649.33 71.5731 2650.85 70.2237 2652.92 70.2237C2654.89 70.2237 2656.08 71.4666 2656.08 73.6328V82.1555H2658.17V73.4907C2658.17 69.984 2656.31 68.3416 2653.52 68.3416C2651.37 68.3416 2650.15 69.2383 2649.51 70.6498H2649.33V63.9737H2647.23V82.1555H2649.33V73.9524ZM2667.72 82.4396C2670.49 82.4396 2672.52 81.0547 2673.16 78.995L2671.13 78.4268C2670.6 79.8473 2669.36 80.5575 2667.72 80.5575C2665.26 80.5575 2663.57 78.9684 2663.47 76.0476H2673.37V75.1598C2673.37 70.0817 2670.35 68.3416 2667.51 68.3416C2663.82 68.3416 2661.37 71.2535 2661.37 75.4439C2661.37 79.6342 2663.78 82.4396 2667.72 82.4396ZM2663.47 74.2365C2663.61 72.1147 2665.11 70.2237 2667.51 70.2237C2669.78 70.2237 2671.24 71.9282 2671.24 74.2365H2663.47ZM2676.56 82.1555H2678.65V73.5263C2678.65 71.6797 2680.11 70.3302 2682.1 70.3302C2682.65 70.3302 2683.23 70.4368 2683.37 70.4723V68.3416C2683.13 68.3238 2682.58 68.3061 2682.27 68.3061C2680.64 68.3061 2679.22 69.2294 2678.72 70.5788H2678.58V68.5192H2676.56V82.1555ZM2691.16 82.4396C2693.93 82.4396 2695.95 81.0547 2696.59 78.995L2694.57 78.4268C2694.04 79.8473 2692.8 80.5575 2691.16 80.5575C2688.7 80.5575 2687 78.9684 2686.91 76.0476H2696.81V75.1598C2696.81 70.0817 2693.79 68.3416 2690.95 68.3416C2687.25 68.3416 2684.8 71.2535 2684.8 75.4439C2684.8 79.6342 2687.22 82.4396 2691.16 82.4396ZM2686.91 74.2365C2687.05 72.1147 2688.55 70.2237 2690.95 70.2237C2693.22 70.2237 2694.67 71.9282 2694.67 74.2365H2686.91ZM2708.59 76.5802C2708.59 79.1371 2706.63 80.3089 2705.07 80.3089C2703.33 80.3089 2702.09 79.0305 2702.09 77.0419V68.5192H2699.99V77.1839C2699.99 80.664 2701.84 82.3331 2704.4 82.3331C2706.46 82.3331 2707.81 81.2322 2708.44 79.8473H2708.59V82.1555H2710.68V68.5192H2708.59V76.5802ZM2714.52 82.1555H2716.61V73.6328C2716.61 71.6353 2718.07 70.2237 2719.7 70.2237C2721.29 70.2237 2722.4 71.2624 2722.4 72.816V82.1555H2724.53V73.2777C2724.53 71.5199 2725.63 70.2237 2727.55 70.2237C2729.04 70.2237 2730.32 71.0138 2730.32 73.0291V82.1555H2732.42V73.0291C2732.42 69.8242 2730.69 68.3416 2728.26 68.3416C2726.31 68.3416 2724.88 69.2383 2724.18 70.6498H2724.04C2723.36 69.1939 2722.17 68.3416 2720.38 68.3416C2718.6 68.3416 2717.29 69.1939 2716.72 70.6498H2716.54V68.5192H2714.52V82.1555Z" fill="white"/>
<line x1="2813.25" y1="41" x2="2813.25" y2="161.6" stroke="white" stroke-width="0.5"/>
<line x1="2875.67" y1="41" x2="2875.67" y2="161.6" stroke="white" stroke-width="0.5"/>
<line x1="2938.1" y1="41" x2="2938.1" y2="161.6" stroke="white" stroke-width="0.5"/>
<line x1="2854.87" y1="41" x2="2854.87" y2="161.6" stroke="white" stroke-width="0.5"/>
<line x1="2917.29" y1="41" x2="2917.29" y2="161.6" stroke="white" stroke-width="0.5"/>
<line x1="2979.72" y1="41" x2="2979.72" y2="161.6" stroke="white" stroke-width="0.5"/>
<line x1="2834.06" y1="41" x2="2834.06" y2="161.6" stroke="white" stroke-width="0.5"/>
<line x1="2896.48" y1="41" x2="2896.48" y2="161.6" stroke="white" stroke-width="0.5"/>
<line x1="2958.91" y1="41" x2="2958.91" y2="161.6" stroke="white" stroke-width="0.5"/>
<path d="M2814.49 125.867L2821.17 119.167L2833.81 133.311L2854.62 112.467L2863.53 125.867L2875.42 95.3444L2896.23 64.0777L2915.55 100.556L2925.96 119.167L2938.59 78.9666L2957.91 64.0777L2978.72 52.1666" stroke="white"/>
<rect x="3086" width="434" height="201" fill="#0A0909"/>
<rect x="3086" width="434" height="201" fill="#0A0909"/>
<path d="M3134.86 134.473H3136.32V132.493C3140.05 132.235 3142.14 130.034 3142.14 127.264C3142.14 123.855 3138.91 122.754 3137.03 122.257L3136.32 122.061V115.749C3138.2 115.936 3139.57 116.948 3139.76 118.564H3141.89C3141.8 115.971 3139.53 114 3136.32 113.787V111.745H3134.86V113.814C3131.82 114.125 3129.53 116.06 3129.53 118.848C3129.53 121.298 3131.31 122.754 3134.15 123.571L3134.86 123.775V130.495C3133 130.3 3131.47 129.341 3131.31 127.512H3129.04C3129.24 130.309 3131.37 132.262 3134.86 132.493V134.473ZM3136.32 130.495V124.192L3136.39 124.21C3138.31 124.743 3140.01 125.417 3140.01 127.228C3140.01 129.013 3138.47 130.256 3136.32 130.495ZM3134.86 121.671C3133.51 121.289 3131.66 120.543 3131.66 118.741C3131.66 117.205 3132.91 116.033 3134.86 115.776V121.671ZM3145.01 128.471H3153.57V132.2H3155.67V128.471H3158.15V126.518H3155.67V114.018H3153L3145.01 126.66V128.471ZM3153.57 126.518H3147.39V126.376L3153.43 116.824H3153.57V126.518ZM3162.05 132.2H3164.36L3172.45 116.078V114.018H3160.81V115.971H3170.18V116.113L3162.05 132.2ZM3181.41 132.449C3185.08 132.493 3187.48 129.723 3187.48 126.341C3187.48 122.825 3184.88 120.304 3181.76 120.304C3179.89 120.304 3178.28 121.218 3177.29 122.718H3177.15C3177.16 118.288 3178.88 115.723 3181.69 115.723C3183.61 115.723 3184.77 116.93 3185.17 118.564H3187.34C3186.9 115.74 3184.75 113.77 3181.69 113.77C3177.6 113.77 3175.09 117.392 3175.09 123.819C3175.09 130.54 3178.43 132.413 3181.41 132.449ZM3181.41 130.495C3179.13 130.495 3177.46 128.551 3177.47 126.376C3177.48 124.201 3179.23 122.257 3181.48 122.257C3183.71 122.257 3185.35 124.086 3185.35 126.341C3185.35 128.649 3183.64 130.495 3181.41 130.495ZM3191.68 132.342C3192.56 132.342 3193.28 131.623 3193.28 130.744C3193.28 129.865 3192.56 129.146 3191.68 129.146C3190.8 129.146 3190.08 129.865 3190.08 130.744C3190.08 131.623 3190.8 132.342 3191.68 132.342ZM3201.22 114.018H3199.02L3194.48 117.037V119.274L3198.91 116.326H3199.02V132.2H3201.22V114.018ZM3212.13 132.449C3215.6 132.449 3218.13 129.892 3218.13 126.412C3218.13 122.887 3215.68 120.304 3212.35 120.304C3211.12 120.304 3209.93 120.739 3209.19 121.333H3209.08L3209.72 115.971H3217.32V114.018H3207.87L3206.77 122.967L3208.83 123.216C3209.59 122.674 3210.87 122.283 3211.99 122.292C3214.31 122.31 3216 124.068 3216 126.447C3216 128.782 3214.37 130.495 3212.13 130.495C3210.27 130.495 3208.79 129.297 3208.62 127.654H3206.49C3206.62 130.424 3209.01 132.449 3212.13 132.449Z" fill="white"/>
<path d="M3250.79 71.0164L3237.99 83.8313L3235.89 81.726L3248.68 68.9111H3237.41V65.9333H3253.76V82.3111H3250.79V71.0164Z" fill="#26AE60"/>
<path d="M3130.2 82.1555H3136.77C3141.07 82.1555 3142.84 80.0603 3142.84 77.326C3142.84 74.4496 3140.86 72.8871 3139.19 72.7805V72.603C3140.75 72.1768 3142.13 71.147 3142.13 68.8032C3142.13 66.1399 3140.36 63.9737 3136.56 63.9737H3130.2V82.1555ZM3132.4 80.2024V73.8814H3136.88C3139.26 73.8814 3140.75 75.4794 3140.75 77.326C3140.75 78.924 3139.65 80.2024 3136.77 80.2024H3132.4ZM3132.4 71.9638V65.9268H3136.56C3138.97 65.9268 3140.04 67.2052 3140.04 68.8032C3140.04 70.7209 3138.48 71.9638 3136.49 71.9638H3132.4ZM3146.18 82.1555H3148.27V68.5192H3146.18V82.1555ZM3147.24 66.2464C3148.06 66.2464 3148.73 65.6072 3148.73 64.826C3148.73 64.0447 3148.06 63.4055 3147.24 63.4055C3146.43 63.4055 3145.75 64.0447 3145.75 64.826C3145.75 65.6072 3146.43 66.2464 3147.24 66.2464ZM3154.21 73.9524C3154.21 71.5731 3155.68 70.2237 3157.69 70.2237C3159.63 70.2237 3160.81 71.4932 3160.81 73.6328V82.1555H3162.91V73.4907C3162.91 70.0106 3161.05 68.3416 3158.29 68.3416C3156.23 68.3416 3154.95 69.2649 3154.31 70.6498H3154.13V68.5192H3152.11V82.1555H3154.21V73.9524ZM3170.75 82.4751C3173.13 82.4751 3174.37 81.1967 3174.8 80.3089H3174.9V82.1555H3177V73.1711C3177 68.8388 3173.69 68.3416 3171.95 68.3416C3169.89 68.3416 3167.55 69.0518 3166.49 71.5376L3168.47 72.2478C3168.94 71.2535 3170.03 70.1882 3172.03 70.1882C3173.95 70.1882 3174.9 71.2091 3174.9 72.9581V73.0291C3174.9 74.0412 3173.87 73.9524 3171.39 74.272C3168.86 74.6005 3166.09 75.1598 3166.09 78.2848C3166.09 80.9481 3168.15 82.4751 3170.75 82.4751ZM3171.07 80.593C3169.4 80.593 3168.19 79.8473 3168.19 78.3913C3168.19 76.7933 3169.65 76.2961 3171.28 76.0831C3172.17 75.9765 3174.55 75.728 3174.9 75.3018V77.2194C3174.9 78.924 3173.55 80.593 3171.07 80.593ZM3182.92 73.9524C3182.92 71.5731 3184.39 70.2237 3186.4 70.2237C3188.34 70.2237 3189.52 71.4932 3189.52 73.6328V82.1555H3191.62V73.4907C3191.62 70.0106 3189.76 68.3416 3187 68.3416C3184.94 68.3416 3183.66 69.2649 3183.02 70.6498H3182.85V68.5192H3180.82V82.1555H3182.92V73.9524ZM3200.98 82.4396C3204 82.4396 3205.99 80.593 3206.35 78.1782H3204.25C3203.86 79.6697 3202.62 80.5575 3200.98 80.5575C3198.5 80.5575 3196.9 78.4978 3196.9 75.3373C3196.9 72.2478 3198.53 70.2237 3200.98 70.2237C3202.83 70.2237 3203.93 71.3601 3204.25 72.603H3206.35C3205.99 70.0461 3203.83 68.3416 3200.95 68.3416C3197.26 68.3416 3194.81 71.2535 3194.81 75.4084C3194.81 79.4922 3197.15 82.4396 3200.98 82.4396ZM3215.13 82.4396C3217.9 82.4396 3219.92 81.0547 3220.56 78.995L3218.54 78.4268C3218 79.8473 3216.77 80.5575 3215.13 80.5575C3212.67 80.5575 3210.97 78.9684 3210.87 76.0476H3220.77V75.1598C3220.77 70.0817 3217.75 68.3416 3214.91 68.3416C3211.22 68.3416 3208.77 71.2535 3208.77 75.4439C3208.77 79.6342 3211.19 82.4396 3215.13 82.4396ZM3210.87 74.2365C3211.02 72.1147 3212.52 70.2237 3214.91 70.2237C3217.19 70.2237 3218.64 71.9282 3218.64 74.2365H3210.87Z" fill="white"/>
<line x1="3320.25" y1="41" x2="3320.25" y2="161.6" stroke="white" stroke-width="0.5"/>
<line x1="3382.67" y1="41" x2="3382.67" y2="161.6" stroke="white" stroke-width="0.5"/>
<line x1="3445.1" y1="41" x2="3445.1" y2="161.6" stroke="white" stroke-width="0.5"/>
<line x1="3361.87" y1="41" x2="3361.87" y2="161.6" stroke="white" stroke-width="0.5"/>
<line x1="3424.29" y1="41" x2="3424.29" y2="161.6" stroke="white" stroke-width="0.5"/>
<line x1="3486.72" y1="41" x2="3486.72" y2="161.6" stroke="white" stroke-width="0.5"/>
<line x1="3341.06" y1="41" x2="3341.06" y2="161.6" stroke="white" stroke-width="0.5"/>
<line x1="3403.48" y1="41" x2="3403.48" y2="161.6" stroke="white" stroke-width="0.5"/>
<line x1="3465.91" y1="41" x2="3465.91" y2="161.6" stroke="white" stroke-width="0.5"/>
<path d="M3321.49 125.867L3328.17 119.167L3340.81 133.311L3361.62 112.467L3370.53 125.867L3382.42 95.3444L3403.23 64.0777L3422.55 100.556L3432.96 119.167L3445.59 78.9666L3464.91 64.0777L3485.72 52.1666" stroke="white"/>
<rect x="3593" width="434" height="201" fill="#0A0909"/>
<rect x="3593" width="434" height="201" fill="#0A0909"/>
<path d="M3641.86 134.473H3643.32V132.493C3647.05 132.235 3649.14 130.034 3649.14 127.264C3649.14 123.855 3645.91 122.754 3644.03 122.257L3643.32 122.061V115.749C3645.2 115.936 3646.57 116.948 3646.76 118.564H3648.89C3648.8 115.971 3646.53 114 3643.32 113.787V111.745H3641.86V113.814C3638.82 114.125 3636.53 116.06 3636.53 118.848C3636.53 121.298 3638.31 122.754 3641.15 123.571L3641.86 123.775V130.495C3640 130.3 3638.47 129.341 3638.31 127.512H3636.04C3636.24 130.309 3638.37 132.262 3641.86 132.493V134.473ZM3643.32 130.495V124.192L3643.39 124.21C3645.31 124.743 3647.01 125.417 3647.01 127.228C3647.01 129.013 3645.47 130.256 3643.32 130.495ZM3641.86 121.671C3640.51 121.289 3638.66 120.543 3638.66 118.741C3638.66 117.205 3639.91 116.033 3641.86 115.776V121.671ZM3658.37 132.449C3662.38 132.449 3664.69 129.048 3664.69 123.109C3664.69 117.214 3662.35 113.77 3658.37 113.77C3654.39 113.77 3652.05 117.214 3652.05 123.109C3652.05 129.048 3654.36 132.449 3658.37 132.449ZM3658.37 130.495C3655.73 130.495 3654.18 127.841 3654.18 123.109C3654.18 118.386 3655.74 115.687 3658.37 115.687C3661 115.687 3662.56 118.386 3662.56 123.109C3662.56 127.841 3661.02 130.495 3658.37 130.495ZM3668.99 132.342C3669.87 132.342 3670.59 131.623 3670.59 130.744C3670.59 129.865 3669.87 129.146 3668.99 129.146C3668.11 129.146 3667.4 129.865 3667.4 130.744C3667.4 131.623 3668.11 132.342 3668.99 132.342ZM3674.32 132.2H3685.79V130.247H3677.33V130.105L3681.42 125.737C3684.54 122.39 3685.47 120.827 3685.47 118.812C3685.47 116.007 3683.19 113.77 3680 113.77C3676.81 113.77 3674.39 115.936 3674.39 119.132H3676.48C3676.48 117.063 3677.82 115.687 3679.93 115.687C3681.9 115.687 3683.41 116.895 3683.41 118.812C3683.41 120.49 3682.42 121.733 3680.32 124.032L3674.32 130.602V132.2ZM3695.28 132.449C3698.91 132.449 3701.44 130.327 3701.46 127.37C3701.44 125.071 3699.9 123.118 3697.94 122.754V122.647C3699.64 122.204 3700.76 120.534 3700.78 118.599C3700.76 115.829 3698.44 113.77 3695.28 113.77C3692.08 113.77 3689.75 115.829 3689.77 118.599C3689.75 120.534 3690.87 122.204 3692.61 122.647V122.754C3690.62 123.118 3689.08 125.071 3689.1 127.37C3689.08 130.327 3691.61 132.449 3695.28 132.449ZM3695.28 130.495C3692.78 130.495 3691.25 129.217 3691.26 127.264C3691.25 125.213 3692.94 123.748 3695.28 123.748C3697.58 123.748 3699.27 125.213 3699.29 127.264C3699.27 129.217 3697.74 130.495 3695.28 130.495ZM3695.28 121.866C3693.29 121.866 3691.89 120.623 3691.9 118.741C3691.89 116.895 3693.23 115.687 3695.28 115.687C3697.28 115.687 3698.63 116.895 3698.65 118.741C3698.63 120.623 3697.23 121.866 3695.28 121.866ZM3704.43 128.471H3712.99V132.2H3715.09V128.471H3717.57V126.518H3715.09V114.018H3712.42L3704.43 126.66V128.471ZM3712.99 126.518H3706.81V126.376L3712.85 116.824H3712.99V126.518ZM3726.93 132.449C3730.61 132.493 3733.01 129.723 3733.01 126.341C3733.01 122.825 3730.41 120.304 3727.29 120.304C3725.42 120.304 3723.81 121.218 3722.82 122.718H3722.67C3722.68 118.288 3724.4 115.723 3727.22 115.723C3729.14 115.723 3730.29 116.93 3730.7 118.564H3732.87C3732.42 115.74 3730.27 113.77 3727.22 113.77C3723.13 113.77 3720.61 117.392 3720.61 123.819C3720.61 130.54 3723.95 132.413 3726.93 132.449ZM3726.93 130.495C3724.65 130.495 3722.98 128.551 3722.99 126.376C3723 124.201 3724.75 122.257 3727.01 122.257C3729.23 122.257 3730.88 124.086 3730.88 126.341C3730.88 128.649 3729.16 130.495 3726.93 130.495Z" fill="white"/>
<path d="M3772.79 71.0164L3759.99 83.8313L3757.89 81.726L3770.68 68.9111H3759.41V65.9333H3775.76V82.3111H3772.79V71.0164Z" fill="#26AE60"/>
<path d="M3642.81 82.1555C3648.35 82.1555 3651.48 78.7109 3651.48 73.0291C3651.48 67.3828 3648.35 63.9737 3643.06 63.9737H3637.2V82.1555H3642.81ZM3639.4 80.2024V65.9268H3642.92C3647.18 65.9268 3649.35 68.6257 3649.35 73.0291C3649.35 77.468 3647.18 80.2024 3642.67 80.2024H3639.4ZM3660.43 82.4396C3664.12 82.4396 3666.61 79.6342 3666.61 75.4084C3666.61 71.147 3664.12 68.3416 3660.43 68.3416C3656.73 68.3416 3654.25 71.147 3654.25 75.4084C3654.25 79.6342 3656.73 82.4396 3660.43 82.4396ZM3660.43 80.5575C3657.62 80.5575 3656.34 78.1427 3656.34 75.4084C3656.34 72.674 3657.62 70.2237 3660.43 70.2237C3663.23 70.2237 3664.51 72.674 3664.51 75.4084C3664.51 78.1427 3663.23 80.5575 3660.43 80.5575ZM3675.31 87.5532C3678.57 87.5532 3681.2 86.0618 3681.2 82.5461V68.5192H3679.18V70.6853H3678.97C3678.5 69.9751 3677.65 68.3416 3674.99 68.3416C3671.54 68.3416 3669.16 71.076 3669.16 75.2663C3669.16 79.5277 3671.65 81.9424 3674.95 81.9424C3677.62 81.9424 3678.47 80.3799 3678.93 79.6342H3679.11V82.4041C3679.11 84.6768 3677.51 85.7067 3675.31 85.7067C3672.83 85.7067 3671.96 84.4016 3671.4 83.647L3669.73 84.8189C3670.58 86.2482 3672.26 87.5532 3675.31 87.5532ZM3675.24 80.0603C3672.61 80.0603 3671.26 78.0717 3671.26 75.2308C3671.26 72.4609 3672.57 70.2237 3675.24 70.2237C3677.79 70.2237 3679.14 72.2834 3679.14 75.2308C3679.14 78.2493 3677.76 80.0603 3675.24 80.0603ZM3690.76 82.4396C3693.52 82.4396 3695.55 81.0547 3696.19 78.995L3694.16 78.4268C3693.63 79.8473 3692.4 80.5575 3690.76 80.5575C3688.3 80.5575 3686.6 78.9684 3686.5 76.0476H3696.4V75.1598C3696.4 70.0817 3693.38 68.3416 3690.54 68.3416C3686.85 68.3416 3684.4 71.2535 3684.4 75.4439C3684.4 79.6342 3686.81 82.4396 3690.76 82.4396ZM3686.5 74.2365C3686.64 72.1147 3688.14 70.2237 3690.54 70.2237C3692.81 70.2237 3694.27 71.9282 3694.27 74.2365H3686.5ZM3705.13 82.4396C3708.15 82.4396 3710.14 80.593 3710.49 78.1782H3708.4C3708 79.6697 3706.76 80.5575 3705.13 80.5575C3702.64 80.5575 3701.04 78.4978 3701.04 75.3373C3701.04 72.2478 3702.68 70.2237 3705.13 70.2237C3706.97 70.2237 3708.08 71.3601 3708.4 72.603H3710.49C3710.14 70.0461 3707.97 68.3416 3705.09 68.3416C3701.4 68.3416 3698.95 71.2535 3698.95 75.4084C3698.95 79.4922 3701.29 82.4396 3705.13 82.4396ZM3719.09 82.4396C3722.79 82.4396 3725.27 79.6342 3725.27 75.4084C3725.27 71.147 3722.79 68.3416 3719.09 68.3416C3715.4 68.3416 3712.91 71.147 3712.91 75.4084C3712.91 79.6342 3715.4 82.4396 3719.09 82.4396ZM3719.09 80.5575C3716.29 80.5575 3715.01 78.1427 3715.01 75.4084C3715.01 72.674 3716.29 70.2237 3719.09 70.2237C3721.9 70.2237 3723.18 72.674 3723.18 75.4084C3723.18 78.1427 3721.9 80.5575 3719.09 80.5575ZM3728.47 82.1555H3730.57V68.5192H3728.47V82.1555ZM3729.54 66.2464C3730.35 66.2464 3731.03 65.6072 3731.03 64.826C3731.03 64.0447 3730.35 63.4055 3729.54 63.4055C3728.72 63.4055 3728.04 64.0447 3728.04 64.826C3728.04 65.6072 3728.72 66.2464 3729.54 66.2464ZM3736.5 73.9524C3736.5 71.5731 3737.97 70.2237 3739.98 70.2237C3741.92 70.2237 3743.1 71.4932 3743.1 73.6328V82.1555H3745.2V73.4907C3745.2 70.0106 3743.34 68.3416 3740.58 68.3416C3738.52 68.3416 3737.24 69.2649 3736.6 70.6498H3736.43V68.5192H3734.4V82.1555H3736.5V73.9524Z" fill="white"/>
<line x1="3827.25" y1="41" x2="3827.25" y2="161.6" stroke="white" stroke-width="0.5"/>
<line x1="3889.67" y1="41" x2="3889.67" y2="161.6" stroke="white" stroke-width="0.5"/>
<line x1="3952.1" y1="41" x2="3952.1" y2="161.6" stroke="white" stroke-width="0.5"/>
<line x1="3868.87" y1="41" x2="3868.87" y2="161.6" stroke="white" stroke-width="0.5"/>
<line x1="3931.29" y1="41" x2="3931.29" y2="161.6" stroke="white" stroke-width="0.5"/>
<line x1="3993.72" y1="41" x2="3993.72" y2="161.6" stroke="white" stroke-width="0.5"/>
<line x1="3848.06" y1="41" x2="3848.06" y2="161.6" stroke="white" stroke-width="0.5"/>
<line x1="3910.48" y1="41" x2="3910.48" y2="161.6" stroke="white" stroke-width="0.5"/>
<line x1="3972.91" y1="41" x2="3972.91" y2="161.6" stroke="white" stroke-width="0.5"/>
<path d="M3828.49 125.867L3835.17 119.167L3847.81 133.311L3868.62 112.467L3877.53 125.867L3889.42 95.3444L3910.23 64.0777L3929.55 100.556L3939.96 119.167L3952.59 78.9666L3971.91 64.0777L3992.72 52.1666" stroke="white"/>
</svg>
