<svg width="42" height="60" viewBox="0 0 42 60" fill="none" xmlns="http://www.w3.org/2000/svg">
<path d="M25.615 11.353H23.621L23.005 9.45297C22.8675 9.02947 22.5995 8.66037 22.2393 8.39861C21.8791 8.13684 21.4453 7.99585 21 7.99585C20.5547 7.99585 20.1209 8.13684 19.7607 8.39861C19.4005 8.66037 19.1325 9.02947 18.995 9.45297L18.379 11.353H16.385C15.9397 11.3528 15.5058 11.4937 15.1454 11.7554C14.7851 12.0171 14.517 12.3862 14.3794 12.8097C14.2418 13.2332 14.2419 13.6894 14.3796 14.1129C14.5173 14.5364 14.7856 14.9054 15.146 15.167L16.759 16.339L16.143 18.239C16.0416 18.5554 16.016 18.8912 16.0682 19.2193C16.1204 19.5474 16.249 19.8587 16.4437 20.128C16.6383 20.3972 16.8935 20.617 17.1887 20.7695C17.4839 20.922 17.8108 21.003 18.143 21.006C18.5894 21.0046 19.0238 20.861 19.383 20.596L21 19.42L22.613 20.592C22.9732 20.8537 23.4069 20.9947 23.8522 20.9947C24.2974 20.9948 24.7312 20.8538 25.0914 20.5921C25.4516 20.3304 25.7196 19.9614 25.8572 19.5379C25.9947 19.1145 25.9947 18.6584 25.857 18.235L25.241 16.335L26.854 15.163C27.2144 14.9014 27.4827 14.5324 27.6204 14.1089C27.7581 13.6854 27.7582 13.2292 27.6206 12.8057C27.483 12.3822 27.2149 12.0131 26.8546 11.7514C26.4942 11.4897 26.0603 11.3488 25.615 11.349V11.353ZM25.679 13.553L23.479 15.153C23.308 15.277 23.1807 15.452 23.1153 15.6528C23.0499 15.8537 23.0498 16.0701 23.115 16.271L23.956 18.859C23.9663 18.8801 23.9679 18.9045 23.9607 18.9268C23.9534 18.9492 23.9378 18.9679 23.917 18.979C23.9001 18.9958 23.8773 19.0052 23.8535 19.0052C23.8297 19.0052 23.8069 18.9958 23.79 18.979L21.59 17.379C21.4191 17.2547 21.2133 17.1878 21.002 17.1878C20.7907 17.1878 20.5849 17.2547 20.414 17.379L18.214 18.979C18.1969 18.9953 18.1741 19.0044 18.1505 19.0044C18.1269 19.0044 18.1041 18.9953 18.087 18.979C18.0663 18.9679 18.0506 18.9492 18.0433 18.9268C18.0361 18.9045 18.0377 18.8801 18.048 18.859L18.889 16.271C18.9542 16.0701 18.9541 15.8537 18.8887 15.6528C18.8233 15.452 18.696 15.277 18.525 15.153L16.325 13.553C16.3051 13.5399 16.29 13.5207 16.2821 13.4982C16.2742 13.4758 16.2738 13.4513 16.2811 13.4287C16.2883 13.406 16.3028 13.3863 16.3223 13.3727C16.3418 13.359 16.3652 13.3521 16.389 13.353H19.109C19.3203 13.3532 19.5263 13.2864 19.6974 13.1623C19.8684 13.0381 19.9957 12.863 20.061 12.662L20.901 10.075C20.922 10.011 21.086 10.011 21.107 10.075L21.947 12.662C22.0123 12.863 22.1396 13.0381 22.3107 13.1623C22.4817 13.2864 22.6877 13.3532 22.899 13.353H25.619C25.6428 13.3521 25.6662 13.359 25.6857 13.3727C25.7052 13.3863 25.7197 13.406 25.7269 13.4287C25.7342 13.4513 25.7338 13.4758 25.7259 13.4982C25.718 13.5207 25.7029 13.5399 25.683 13.553H25.679Z" fill="black"/>
<path d="M2 7C1.46957 7 0.96086 7.21071 0.585787 7.58579C0.210714 7.96086 0 8.46957 0 9V41C0 41.1857 0.0517147 41.3678 0.149349 41.5257C0.246984 41.6837 0.386681 41.8114 0.552787 41.8944C0.718893 41.9775 0.904844 42.0126 1.08981 41.996C1.27477 41.9793 1.45143 41.9114 1.6 41.8L5 39.25L8.4 41.8C8.54857 41.9114 8.72523 41.9793 8.91019 41.996C9.09516 42.0126 9.28111 41.9775 9.44721 41.8944C9.61332 41.8114 9.75302 41.6837 9.85065 41.5257C9.94829 41.3678 10 41.1857 10 41V26.9C11.3973 29.1255 13.4328 30.8784 15.841 31.93C15.4931 32.2895 15.2412 32.7307 15.1087 33.2132C14.9762 33.6956 14.9673 34.2036 15.0827 34.6903C15.1982 35.1771 15.4343 35.627 15.7694 35.9985C16.1045 36.3699 16.5277 36.6511 17 36.816V41H14C13.7348 41 13.4804 41.1054 13.2929 41.2929C13.1054 41.4804 13 41.7348 13 42V54H11C10.4696 54 9.96086 54.2107 9.58579 54.5858C9.21071 54.9609 9 55.4696 9 56V59C9 59.2652 9.10536 59.5196 9.29289 59.7071C9.48043 59.8946 9.73478 60 10 60H32C32.2652 60 32.5196 59.8946 32.7071 59.7071C32.8946 59.5196 33 59.2652 33 59V56C33 55.4696 32.7893 54.9609 32.4142 54.5858C32.0391 54.2107 31.5304 54 31 54H29V42C29 41.7348 28.8946 41.4804 28.7071 41.2929C28.5196 41.1054 28.2652 41 28 41H25V36.816C25.4729 36.6513 25.8966 36.3701 26.2321 35.9984C26.5676 35.6267 26.804 35.1764 26.9196 34.6892C27.0351 34.2019 27.0259 33.6935 26.893 33.2107C26.7601 32.7279 26.5076 32.2864 26.159 31.927C28.5668 30.8762 30.6022 29.1244 32 26.9V41C31.999 41.1867 32.0502 41.3699 32.148 41.529C32.2457 41.688 32.386 41.8166 32.553 41.9C32.6782 41.9591 32.8145 41.9911 32.953 41.994C32.969 41.994 32.984 42.005 33 42.005C33.016 42.005 33.028 41.999 33.043 41.998C33.1058 41.9939 33.1681 41.9839 33.229 41.968C33.2628 41.9619 33.2961 41.9539 33.329 41.944C33.4262 41.9102 33.5176 41.8617 33.6 41.8L37 39.25L40.4 41.8C40.5486 41.9114 40.7252 41.9793 40.9102 41.996C41.0952 42.0126 41.2811 41.9775 41.4472 41.8944C41.6133 41.8114 41.753 41.6837 41.8507 41.5257C41.9483 41.3678 42 41.1857 42 41V9C42 8.46957 41.7893 7.96086 41.4142 7.58579C41.0391 7.21071 40.5304 7 40 7H34V5.722C34.303 5.54786 34.555 5.29709 34.7305 4.99484C34.906 4.6926 34.9989 4.34951 35 4V2C35 1.46957 34.7893 0.960859 34.4142 0.585786C34.0391 0.210714 33.5304 0 33 0H9C8.46957 0 7.96086 0.210714 7.58579 0.585786C7.21071 0.960859 7 1.46957 7 2V4C7.00105 4.34951 7.094 4.6926 7.26952 4.99484C7.44504 5.29709 7.69696 5.54786 8 5.722V7H2ZM8 9V11H5C4.73478 11 4.48043 11.1054 4.29289 11.2929C4.10536 11.4804 4 11.7348 4 12V17H2V9H8ZM8 20V39L6 37.5V19H8V20ZM8 17H6V13H8V17ZM2 19H4V37.5L2 39V19ZM31 58H11V56H31V58ZM27 50H19V47H27V50ZM27 45H18C17.7348 45 17.4804 45.1054 17.2929 45.2929C17.1054 45.4804 17 45.7348 17 46V51C17 51.2652 17.1054 51.5196 17.2929 51.7071C17.4804 51.8946 17.7348 52 18 52H27V54H15V43H27V45ZM19 41V37H23V41H19ZM24 33C24.2652 33 24.5196 33.1054 24.7071 33.2929C24.8946 33.4804 25 33.7348 25 34C25 34.2652 24.8946 34.5196 24.7071 34.7071C24.5196 34.8946 24.2652 35 24 35H18C17.7348 35 17.4804 34.8946 17.2929 34.7071C17.1054 34.5196 17 34.2652 17 34C17 33.7348 17.1054 33.4804 17.2929 33.2929C17.4804 33.1054 17.7348 33 18 33H24ZM21 31C18.0837 30.9966 15.2878 29.8365 13.2256 27.7744C11.1635 25.7122 10.0034 22.9163 10 20V6H32V20C31.9966 22.9163 30.8365 25.7122 28.7744 27.7744C26.7122 29.8365 23.9163 30.9966 21 31ZM34 22V19H36V37.5L34 39V22ZM36 17H34V13H36V17ZM40 39L38 37.5V19H40V39ZM40 9V17H38V12C38 11.7348 37.8946 11.4804 37.7071 11.2929C37.5196 11.1054 37.2652 11 37 11H34V9H40ZM9 2H33V4H9V2Z" fill="black"/>
<path d="M19.157 25.9379C18.1285 25.7774 17.1777 25.2943 16.4417 24.5582C15.7056 23.8222 15.2225 22.8714 15.062 21.8429C15.0204 21.5809 14.8763 21.3461 14.6616 21.1903C14.4469 21.0344 14.179 20.9703 13.917 21.0119C13.655 21.0536 13.4202 21.1976 13.2644 21.4123C13.1085 21.627 13.0444 21.8949 13.086 22.1569C13.3125 23.6024 13.992 24.9387 15.0266 25.9733C16.0612 27.0079 17.3975 27.6874 18.843 27.9139C18.8953 27.9218 18.9481 27.9259 19.001 27.9259C19.2529 27.9263 19.4957 27.8316 19.6809 27.6607C19.866 27.4898 19.9798 27.2553 19.9995 27.0041C20.0192 26.753 19.9434 26.5036 19.7872 26.3059C19.631 26.1083 19.4059 25.9768 19.157 25.9379V25.9379Z" fill="black"/>
<path d="M24 26H23C22.7348 26 22.4804 26.1054 22.2929 26.2929C22.1054 26.4804 22 26.7348 22 27C22 27.2652 22.1054 27.5196 22.2929 27.7071C22.4804 27.8946 22.7348 28 23 28H24C24.2652 28 24.5196 27.8946 24.7071 27.7071C24.8946 27.5196 25 27.2652 25 27C25 26.7348 24.8946 26.4804 24.7071 26.2929C24.5196 26.1054 24.2652 26 24 26Z" fill="black"/>
</svg>
