<svg width="390" height="77" viewBox="0 0 390 77" fill="none" xmlns="http://www.w3.org/2000/svg">
<circle cx="2.5" cy="2.5" r="2.5" fill="#26AE60"/>
<circle cx="2.5" cy="38.5" r="2.5" fill="#26AE60"/>
<circle cx="2.5" cy="74.5" r="2.5" fill="#26AE60"/>
<circle cx="57.5" cy="2.5" r="2.5" fill="#26AE60"/>
<circle cx="57.5" cy="38.5" r="2.5" fill="#26AE60"/>
<circle cx="57.5" cy="74.5" r="2.5" fill="#26AE60"/>
<circle cx="112.5" cy="2.5" r="2.5" fill="#26AE60"/>
<circle cx="112.5" cy="38.5" r="2.5" fill="#26AE60"/>
<circle cx="112.5" cy="74.5" r="2.5" fill="#26AE60"/>
<circle cx="167.5" cy="2.5" r="2.5" fill="#26AE60"/>
<circle cx="167.5" cy="38.5" r="2.5" fill="#26AE60"/>
<circle cx="167.5" cy="74.5" r="2.5" fill="#26AE60"/>
<circle cx="222.5" cy="2.5" r="2.5" fill="#26AE60"/>
<circle cx="222.5" cy="38.5" r="2.5" fill="#26AE60"/>
<circle cx="222.5" cy="74.5" r="2.5" fill="#26AE60"/>
<circle cx="277.5" cy="2.5" r="2.5" fill="#26AE60"/>
<circle cx="277.5" cy="38.5" r="2.5" fill="#26AE60"/>
<circle cx="277.5" cy="74.5" r="2.5" fill="#26AE60"/>
<circle cx="332.5" cy="2.5" r="2.5" fill="#26AE60"/>
<circle cx="332.5" cy="38.5" r="2.5" fill="#26AE60"/>
<circle cx="332.5" cy="74.5" r="2.5" fill="#26AE60"/>
<circle cx="387.5" cy="2.5" r="2.5" fill="#26AE60"/>
<circle cx="387.5" cy="38.5" r="2.5" fill="#26AE60"/>
<circle cx="387.5" cy="74.5" r="2.5" fill="#26AE60"/>
</svg>
