<svg width="225" height="225" viewBox="0 0 225 225" fill="none" xmlns="http://www.w3.org/2000/svg">
<circle cx="2.5" cy="2.5" r="2.5" fill="#26AE60"/>
<circle cx="2.5" cy="57.5" r="2.5" fill="#26AE60"/>
<circle cx="2.5" cy="112.5" r="2.5" fill="#26AE60"/>
<circle cx="2.5" cy="167.5" r="2.5" fill="#26AE60"/>
<circle cx="2.5" cy="222.5" r="2.5" fill="#26AE60"/>
<circle cx="57.5" cy="2.5" r="2.5" fill="#26AE60"/>
<circle cx="57.5" cy="57.5" r="2.5" fill="#26AE60"/>
<circle cx="57.5" cy="112.5" r="2.5" fill="#26AE60"/>
<circle cx="57.5" cy="167.5" r="2.5" fill="#26AE60"/>
<circle cx="57.5" cy="222.5" r="2.5" fill="#26AE60"/>
<circle cx="112.5" cy="2.5" r="2.5" fill="#26AE60"/>
<circle cx="112.5" cy="57.5" r="2.5" fill="#26AE60"/>
<circle cx="112.5" cy="112.5" r="2.5" fill="#26AE60"/>
<circle cx="112.5" cy="167.5" r="2.5" fill="#26AE60"/>
<circle cx="112.5" cy="222.5" r="2.5" fill="#26AE60"/>
<circle cx="167.5" cy="2.5" r="2.5" fill="#26AE60"/>
<circle cx="167.5" cy="57.5" r="2.5" fill="#26AE60"/>
<circle cx="167.5" cy="112.5" r="2.5" fill="#26AE60"/>
<circle cx="167.5" cy="167.5" r="2.5" fill="#26AE60"/>
<circle cx="167.5" cy="222.5" r="2.5" fill="#26AE60"/>
<circle cx="222.5" cy="2.5" r="2.5" fill="#26AE60"/>
<circle cx="222.5" cy="57.5" r="2.5" fill="#26AE60"/>
<circle cx="222.5" cy="112.5" r="2.5" fill="#26AE60"/>
<circle cx="222.5" cy="167.5" r="2.5" fill="#26AE60"/>
<circle cx="222.5" cy="222.5" r="2.5" fill="#26AE60"/>
</svg>
